<svg version="1" xmlns="http://www.w3.org/2000/svg" width="10666.667" height="10666.667" viewBox="0 0 8000 8000"><path d="M2196.5 635.7c-4.4.1-22.6.7-40.5 1.3-62.3 2-101.5 4.1-205.5 11-74.1 4.9-78 5.3-84.2 8-10.6 4.5-16.8 14.5-16.7 27 0 9.8 2.8 16.4 9.6 22.5 8.6 7.7 11.5 8.2 40.1 6.2 161.3-11.4 272.3-16.4 333.7-15.3 17.3.3 34.1.7 37.2.7 9.7.2 19.7-6.3 23.9-15.5 3.7-8.2 1.9-23.7-3.4-29.5-4.8-5.3-14-11.1-20.5-13-12.3-3.7-35.2-4.7-73.7-3.4zM2474 649.9c-14.1 4.6-22.4 15.8-22.4 30.1 0 8.8 2.2 14.5 7.9 20.8 11.2 12.5 31.7 13.1 43.8 1.4 2.1-2 5.1-6 6.5-8.7 3.6-6.7 3.8-19.5.5-26.6-2.7-6-9.3-12.5-15.2-15.2-5-2.2-16.8-3.2-21.1-1.8zM2712.7 655.4c-9.7 3.5-16.2 10.8-19.4 21.5-3.9 13.6 3 28.7 16.2 35.1 5.9 2.8 11.1 3.1 99 5.5 69.1 1.9 125.4 3.8 209.5 7 34.9 1.4 73.4 2.8 85.5 3.1 21.7.7 22 .8 26.3 3.5 11.3 7.2 26.2 6 36.3-2.9 2-1.8 5-6.2 7-10.4 3-6.5 3.4-8.2 3.4-15.8 0-7.3-.4-9.3-2.8-14.1-5.2-10.7-15.8-17.9-29.2-19.8-3.8-.6-23.6-1.5-44-2.1-20.3-.6-64.7-2.2-98.5-3.5-72.2-2.9-258.3-8.6-276.9-8.5-4.7.1-10.3.7-12.4 1.4zM495 669.1c-9.1 1.2-14.6 3.7-19.9 9-6 6-8.4 13.4-7.8 23.4.7 12.5 6.8 22.1 17.2 27.3 4.4 2.1 19.7 6.6 26 7.6 5.8 1 14.3-1 20-4.6l5-3.1 22.5 1.2c79.1 4.1 128.3 5.7 204.5 6.6 36.9.5 48.4 1 53.4 2.2 7.5 1.7 12.4 1.2 21.8-2.3 9.9-3.7 13.7-5.9 17.3-10 5.4-6.2 7.4-11.8 7.5-20.9 0-6.8-.4-8.9-2.8-13.7-3.3-6.7-9.3-12.1-16.6-14.8-4.5-1.8-6.9-1.9-27.8-1.3-40.5 1-163-1.8-231.8-5.3-38.5-2-78.9-2.6-88.5-1.3zM1675.4 670.1c-9.4 2.7-18.4 12.7-20.4 22.6-3.1 14.5 3.2 27.8 16.2 34.3 5.2 2.6 7.2 3 13.8 3 6.6 0 8.6-.4 13.8-3 11.3-5.7 16.7-14.5 16.7-27.5s-5.4-21.8-16.7-27.5c-5.2-2.5-7.2-3-13.2-2.9-3.9 0-8.5.5-10.2 1zM1182.5 678.4c-8.9 2.8-15.3 8.2-19.6 16.6-3.4 6.5-3.4 19.4.1 26.4 3 6.1 8.5 11.6 14.8 14.7l4.7 2.4 157.5.7c86.6.3 161.4.9 166.2 1.3 7.9.6 9.2.5 14-1.7 11.6-5.4 16.9-13.3 17.6-26.4.4-7.3.1-8.9-2.2-14-6.9-15-15.1-18.3-51.1-20.4-26.7-1.5-297-1.2-302 .4zM994.4 681c-7.1 2.8-12.8 8.1-16.1 14.8-2.4 4.9-2.8 6.9-2.8 14.2 0 7.2.4 9.2 2.7 13.6 5.4 10.3 15.5 16.6 26.8 16.8 12.8.1 23.3-6.1 28.7-17.2 5.6-11.4 2.9-26.6-6.2-35.5-5.7-5.6-11.6-8-20.4-8.4-5.9-.2-8.8.1-12.7 1.7zM4318.5 756.1c-46.2.5-94.6 1.2-107.5 1.6l-23.5.8 21.5 3.3c27.2 4.1 89.8 12 136.5 17.1 53.8 6 160.7 13.4 228.5 16 10.7.4 17.9 1 16 1.3-1.9.4-19.7 1.4-39.5 2.3-77.6 3.4-160.3 9.8-259 20-60 6.2-65.5 6.8-65.2 7.1.5.5 73.2 7.3 105.7 9.9 156.3 12.4 276.1 15.4 447.5 11 12.7-.3 66.4-1.2 119.5-2 90.6-1.4 126.6-2 254-4.5 28.3-.6 98.3-2.4 155.5-4s137.5-3.9 178.5-5c307-8.2 478-7 676.5 4.5 78.8 4.6 128.6 6.9 209 9.7 48.6 1.7 189.6 1.7 211.5 0 26.3-2 41-3.5 41-4.2 0-.3-3.7-1.2-8.2-1.8-4.6-.6-23.8-3.4-42.8-6.2-77-11.3-163.6-21-264-29.5-45.5-3.8-45.7-3.9-15-5.3 27.2-1.3 108.7-5.6 174.5-9.2 61-3.3 139.7-9.2 146-10.8 5.8-1.5-46.1-4.7-102.5-6.2-105.1-2.9-266.6-2.3-398.5 1.5-27.5.8-71.6 1.9-98 2.5-26.4.6-66.9 1.5-90 2-101.3 2.3-303.2 3.3-431.5 2.1-137.8-1.3-378.3-6.5-443-9.6-6.3-.3-68-2.6-137-5-118.2-4.2-174.1-6.1-253-8.6-45.9-1.4-241.4-1.9-343.5-.8zM2568 978.1c-18.5 3.6-40.2 25-53 52.3-9.9 20.9-13.9 35.5-18.7 68.1-2.5 17.5-2.8 21.4-2.8 49 0 33.2.7 38.7 7.6 59.7l3.2 9.7-6.7 7.3c-7 7.9-26.9 26.3-37.6 34.9-27.3 22-66.5 41.2-102.5 50.5-10 2.6-12.6 2.8-27.5 2.8-14.7-.1-17.6-.4-26.3-2.7-21.1-5.8-37.9-17.2-50.9-34.4l-4-5.3 10.9-16.7c25.8-39.4 41.5-74.1 48.4-106.8 2-9.4 2.4-13.9 2.4-31 0-18.8-.2-20.6-2.8-29.9-4.2-15.1-9.5-25.6-16.6-32.7-7.4-7.4-13-9.9-23.1-10.6-15.5-1.1-26.2 3.5-39.5 17.1-10.5 10.8-16.4 20.1-24.2 38.3-10.3 23.9-15 41.8-18.9 71.8-1.3 10-1.5 17.9-1.1 34.5.5 22 1.7 31.6 6.2 49.4l2.2 9-8.7 9.5c-23.7 26.1-44.8 42.5-71.5 55.7-37.4 18.4-78.6 20.1-111.7 4.7-27.8-12.9-48.1-35.4-61.4-68l-4.2-10.4 8.7-12.2c22.2-31 38.8-61.3 47.1-85.7 5.7-16.9 7.1-25 7.7-44 1-32-4.4-55.6-15.5-68.1-7.6-8.5-22.8-13.1-36.7-11-30.3 4.5-52.1 30.1-63.5 74.6-8.7 33.9-10.1 68.1-4.5 105 1.5 9.3 2.9 18.8 3.2 21 .5 4 .4 4-13.7 18.7-7.7 8.1-18.2 18.2-23.3 22.4-21.8 18.4-53.9 36.3-80.7 45.2-23.1 7.6-34.8 9.6-56 9.7-17.2 0-17.7-.1-27.5-3.4-27.1-9.1-53.3-26.8-72.7-49.4l-5.9-6.8 2-2.7c9.3-13.2 27-45.9 36.6-67.6 17.3-39.3 22.1-60.4 19.1-83.4-1.6-12.2-3.1-17-9-29.7-7.1-15.1-19.1-28.2-31.6-34.6-5.4-2.7-17.5-3.7-26.4-2-18.2 3.4-38.1 20.1-48.4 40.6-10.9 21.9-16.7 52.3-16.6 87.5 0 30.4 3.2 50.8 11.6 74.8l4 11.3-5.5 6.7c-18.8 23-38.2 41.5-54.7 52.3-23.6 15.5-40.2 22.8-63.1 27.4-29.6 6.1-58.2-4-75.6-26.7-4.7-6.1-12.3-19.5-12.3-21.9 0-.8 2.6-4.7 5.9-8.5 25.5-30.3 43.8-61.7 68.5-117.4 22.9-51.7 26.6-62.4 26.6-77.2 0-10.4-2.3-18.4-7.6-26.4-10-15-24.2-22.4-43.3-22.4-27.7 0-49.3 13.7-74.8 47.7-18 24-28 50.2-33.2 86.8-4.1 28.6-5 53.5-3 77.2l1.1 12.8-6.8 6.4c-23.1 21.5-44.7 36.7-70.5 49.7-12.5 6.2-35.6 14.2-48.9 16.9-11.5 2.3-32.2 1.7-43.4-1.4-11.5-3.2-25.4-10.6-34-18.1l-3.7-3.3 8.8-9.1c32.8-33.7 57.2-73.9 67.3-110.8 5.6-20.6 7.4-43.9 4.5-60.8-5.6-33.8-25.4-60.5-50.8-68.6-11.1-3.5-27.8-4.4-39.4-2-20.9 4.2-40.4 18.5-54.9 40.1-9 13.6-19.9 40.8-23.8 59.8-2.3 11.2-5.4 36.4-6.1 50.7-1.5 27.4 4.1 64.2 13 86.3l2.3 5.8-5.7 3.6c-32.6 20.9-67.1 32.3-97.9 32.3-23.1 0-47-7.7-70.2-22.7-12.2-8-31.8-27.8-40.5-41.2-7.8-11.9-16.1-27.9-19-36.5-2-5.8-2-5.8 0-7.3 1.1-.8 9.2-6.2 18-12 37.3-24.6 68.2-49.9 101.1-82.7 26.6-26.5 31.4-32.9 37.5-49.5 7.3-19.9 3.9-45.5-8.6-65.8-5.8-9.3-18.5-22.3-27.5-28.1-18.4-12-41.2-15.7-64.9-10.7-36.6 7.7-71.7 39.7-94.1 85.9-12.6 25.9-19.1 48.1-22 74.6-1.5 13.7-1.5 40.8 0 53.5 1.2 10.1 5.5 35 6.5 37.7.7 1.7-15.8 11.2-41.1 23.7-28.6 14.2-53.8 23.9-75.8 29.1-15.9 3.8-17.7 2.4-6.9-5.6 9.5-7 10.2-7.9 10.3-12.6 0-4.3-3.6-7.8-8-7.8-2.5 0-9.3 4.2-18.4 11.3-5.6 4.5-12.6 14.3-12.6 17.8 0 3.8 5.3 9.7 12.2 13.4 4.8 2.7 6.2 2.9 15.3 2.9 8.6 0 12.3-.6 26-4.3 28.1-7.4 52.5-16.9 86.3-33.7l20.4-10.1.9 2.6c8.1 21.3 17.1 37.7 31.2 56.4 24.2 32.2 55 54.2 94.2 67.2 42.1 14.1 92.1 10.1 140.3-11.2 11.8-5.2 29.7-14.5 39.2-20.4l4.4-2.8 7.2 6.8c20.1 19.1 47.1 33 73.4 37.6 14.8 2.6 41.2 3.1 54.5 1 26.7-4.1 56.4-14.6 83-29.2 13-7.1 35.5-22.2 47.4-31.7 5.2-4.2 9.8-7.6 10.1-7.6.4 0 1.1 1 1.7 2.2 2.2 4.9 14 19.7 21.7 27.3 24.6 24.4 60.6 37.1 97.3 34.3 52-3.9 108.8-35.4 150.4-83.3l8-9.3 12.2 12.2c22 21.9 44.3 36.7 72.7 48.1 16.9 6.8 26.7 8.7 47.1 9.3 35.1.9 64.9-5.2 101.4-20.8 31.9-13.6 62.5-33.7 87-57.1l9-8.7 5.8 11.2c10.8 20.9 28.7 42.1 47.2 55.9 17 12.6 40.6 23.1 62.9 27.9 8.8 1.9 13.2 2.2 33.6 2.3 20.4 0 25.1-.3 35.5-2.3 41.2-7.9 83.3-31.6 119.7-67.4l11.9-11.6 5.5 6.8c16.7 20.7 48.2 38.5 78.6 44.5 11.4 2.3 38.1 3.1 50.4 1.6 21.3-2.7 40.3-8.1 65.8-18.8 41.7-17.6 70.6-36.9 104.7-70l13.5-13.2 5 4.1c17.7 14.8 45.2 26.6 70.1 30.2 49.7 7.1 97.7-10.3 140.2-50.9l7.6-7.3 4.9 5.7c13.3 15.5 35.2 31.5 52.3 38.1 14.3 5.6 23.4 7.8 37.3 8.9 28 2.3 60.3-4.8 82.3-18.1 2.6-1.5 4.2-1.9 5.1-1.3 19.9 14.6 29.6 20.2 46.6 26.9 26.6 10.4 59.3 15.4 95 14.3 39.1-1.2 73.3-8 88.4-17.5 5.4-3.4 13.1-11.6 15.5-16.6 2.9-5.9 4.4-17.8 3.1-24.2-2.1-10.2-10.2-18.8-20.5-21.5-9.7-2.7-23.2 1.3-29.4 8.7-2.2 2.6-4.1 3.5-11.6 5.2-20.5 4.9-40.1 6.7-63.5 5.9-33.1-1.2-55.4-7.2-76.7-20.9l-5.2-3.3 4.5-6.5c16.7-24 41.1-70.9 49.8-95.9 6.4-18.4 7-35.9 1.8-51.1-5.9-16.9-20.2-39-34-52.3-18-17.3-44.5-21.5-67.1-10.7-14.7 7.1-28 22.8-37.3 44.2-11.3 25.6-15.6 45-16.5 73.8-1 32 4.4 60 16.8 86.8 2.1 4.7 3.9 8.8 3.9 9.2 0 .4-2.6 1.9-5.8 3.3-16.4 7.4-41.1 9.4-56.8 4.6-13.1-4-22.3-9.9-35.4-22.6-6.4-6.2-12.2-12.3-12.9-13.6-1.2-2.2-.9-3 3.2-9.4 22.7-35.4 55.7-113.5 59-139.4 3.1-24.7-9.6-51.3-28.8-60.3-8.8-4.2-16.6-5.2-27.7-3.8-24.6 3-47.3 23.5-60.2 54.1-11.1 26.2-17.1 58.4-17 90.6 0 21.2 2.2 37.4 7 52.6l2.6 8.3-13.8 13.6c-33.4 32.8-68.4 46.8-101.1 40.5-16.8-3.2-37.3-12.1-44.6-19.4l-2.8-2.7 10.6-16c22.1-33 38.7-73.6 47.6-116.4 5.5-26.3 5-54.8-1.3-73.5-9.9-29.2-30.8-42.7-57.8-37.4zm13.1 54c4.5 17.2 1.7 38.7-9.6 72.4-8.4 25.2-16.7 43.8-26.4 59l-2.5 4-.7-4.5c-1.1-7-1-34.2.2-47 1.3-14 4.9-34.4 8.4-46.5 1.4-5 5.1-14.2 8.2-20.5 4.5-9.1 7.1-12.9 12.5-18.4 3.7-3.9 7-6.7 7.4-6.4.3.4 1.4 3.9 2.5 7.9zm226.9-.9c2.7 4.4 2.5 7.5-.9 17.8-5.3 15.6-34.7 79-36.8 79-1.1 0 .5-25 2.3-35 4.6-26.5 11.8-45.6 21-55.9 3.6-4.1 9.8-8.7 12.2-9.1.1 0 1.1 1.5 2.2 3.2zm-1968.6 6.3c16.3 3.5 30.5 16.7 35.6 33.4 1.1 3.5 2 8 2 10.1 0 6.2-3.8 16.5-8.8 23.9-15.4 22.9-62.3 69.2-94.8 93.8-12.5 9.4-29.5 21.5-29.9 21.1-.8-.9-2.7-15.5-3.5-27.3-2.5-34.7 3.8-65.9 19.1-95.4 9.3-17.8 16.1-27.4 26.8-38 15.1-15 27.2-21 45.6-23 .6 0 4.1.6 7.9 1.4zm2133.9 28.4c10.2 9.8 18.7 24 18.7 31.4 0 7.6-8.4 24.8-27.7 56.8-5.5 9.1-11.3 18.5-12.9 20.8l-2.8 4.4-1.4-3.4c-.8-1.9-2.6-8.4-3.9-14.4-2.2-9.5-2.6-13.5-2.6-28.5-.1-19.5 1.1-27.1 6.9-44.8 5.1-15.7 14.1-29.9 18.1-28.6 1 .4 4.4 3.2 7.6 6.3zm-1023.9 17.8c2.5 13.4 1.3 32.9-3 47.8-4.3 15.3-24.2 53.8-25.2 49-.3-1.1-.2-9.7.1-19 1-31.6 9.7-62.2 21.7-75.8 2.3-2.6 4.5-4.7 5-4.7s1.1 1.2 1.4 2.7zm313.6 6.7c0 .2 1 4.1 2.1 8.7 1.7 6.9 2 10.1 1.5 17.9-1 16.4-7.2 38.1-15.8 55.5-7.2 14.6-19.1 35.4-20 34.9-1.2-.7-1-22.9.3-34.2 3.3-30.6 15.2-65.9 26.7-79.3 2.8-3.3 5.2-4.9 5.2-3.5zm-658.3 11c3.8 5.5 8.3 19 8.3 24.5 0 5.7-4.3 21.5-9.1 33.8-4.7 11.6-23.1 48.9-25.3 51.1-4.3 4.3-5.6-47.4-1.8-68 2.6-13.9 6.2-25.8 9.8-32.3 3-5.2 12.2-14.7 13.8-14.2.6.2 2.6 2.5 4.3 5.1zm-233.1 9.9c-12.4 27.9-44.5 92.7-47.7 96.1-1.5 1.7-1-4.7 1.6-18.6 5-27.1 10.8-41.7 23.1-58.1 6.1-8.1 22.4-24.7 24.3-24.7.6 0-.1 2.4-1.3 5.3zm-293 23.9c4.6 5 6.2 8 8.5 16.4 1.8 6.5 2 9.2 1.4 16.7-.7 9.9-4 24.5-8 35.7-6.1 17.2-23.3 44.7-38.9 62.4l-6 6.8-1.8-7.8c-2.4-10.5-3.3-36.4-1.9-52.6 3.2-36.6 14.9-66.7 30.4-77.9 5.9-4.2 12.2-4.1 16.3.3zM6246.5 1266.8c-6.4 2.3-15.4 8.2-19.9 13.2-2 2.2-5.4 7.7-7.7 12.2-5.8 11.7-38 71.3-51.6 95.8-16.8 30.1-25.8 44.8-34.8 56.8l-7.9 10.7-.7-4.2c-1.7-9.3-4-37.9-5.9-71.3-3.1-55.5-3.9-67.2-5-72.9-2.9-15.3-12.2-26.2-26.1-30.6-9.2-2.9-12.6-3.1-19.6-1-11.5 3.4-17.3 10.9-37.8 48.5-40.6 74.6-53.3 95-69.5 112.2-4.5 4.9-8.6 8.8-9 8.8-2.1 0-10.9-32.2-20.5-74.5-6.1-27-12.8-48.7-17.5-57-3.3-5.7-9.9-12.3-15.1-15.1-8.2-4.4-25.7-4.6-34.3-.4-13.1 6.3-23.2 20.4-76.1 106-30.4 49.3-39.6 62.3-54.9 77.6-10.5 10.5-19.4 17.1-23.5 17.6-2.2.3-3.1-.9-7.7-9.7-11.8-22.4-18.8-51-28.2-115.6-5.1-34.6-7.6-40.5-20-46.6-4.9-2.4-6.9-2.8-13.7-2.7-14 .1-21.7 5.5-29.4 20.4-2.5 4.7-14.5 25.4-26.9 46-37.1 62-52.7 84.5-71.7 103.4-11 11-21.8 18.8-23.5 17-2.8-2.9-13.6-45.2-22.5-87.8-7.2-34.4-12.9-56.7-16.1-63.3-5.8-12-16.4-18.5-30.4-18.6-10.6-.1-17.1 2.3-23.5 8.7-4 4.1-7 9-14.5 24.1-37.2 74.9-57 108.6-73.9 125.6-8.6 8.6-17 14.5-19.4 13.6-2-.8-7.2-11.2-11.2-22.7-5.6-16.2-16.7-57.8-22.9-86-8.2-37.4-9.3-41.6-11.9-47.3-3.5-7.6-11-16.2-15.8-18.1-4.8-2-12.8-2.1-17.2-.2-7.5 3.1-16.8 16.4-24.8 35.6-23.5 56.2-47.3 106-59.8 125.2-8.6 13.2-18.7 24.8-25.1 28.7l-5 3.1-1.7-2.6c-3.2-4.9-11.4-31.8-18-58.8-3.6-14.9-8.7-35.9-11.3-46.6-5.5-22.6-8.9-30.7-16.6-38.9-7.1-7.7-10.8-9.4-18.9-8.9-4.9.3-7 1-9.8 3.1-4.9 3.7-13.9 17.6-17.7 27.2-7.2 18.2-31.4 70.4-45.5 98.5-8.9 17.6-22.4 41.2-29.4 51.4-4 5.7-14.3 16.9-18.3 19.7-5.5 3.9-7.2-.2-12.3-30.1-8.1-47.2-11.6-80.6-14.5-140.3-1.4-27.9-2.8-34.2-10.4-46.2-4.6-7.2-8.5-9.5-15.7-9.5-4.3 0-6.4.6-10 2.8-6.1 3.9-15.2 14-19.2 21.5-1.9 3.4-9.6 17.7-17.2 31.7-45.8 84.6-63.8 113.2-88.9 141.2-3.3 3.8-6.3 6.8-6.7 6.8-.9 0-4.7-16.1-8.3-34.5-2.8-14.6-7.5-43.8-14.2-87.5-4.8-31.9-11.5-67.1-14-73.5-3.8-9.8-10.4-14.5-20.4-14.5-3.3 0-7.5.6-9.3 1.4-5 2-9.4 7.8-11.7 15.3-5.8 19-30.2 84-41.1 109.4-6.7 15.8-17.7 38.3-24.1 49.3-15.2 26.2-38 53.5-43.6 52.4-.8-.2-2.2-2.1-3-4.3-1.9-4.8-1.9-14.3-.1-116.4 1.6-90.5.6-113.6-5.1-119.6-3.8-4-9-5.1-14.4-3.1-3.7 1.4-5.3 3-9.9 9.9-7.4 11-12.5 24.3-20.9 54.2-3.8 13.7-11.1 39.4-16.3 57-17.9 60.9-43.8 153.5-43.2 154.2 1 1 69.3-170.2 78.4-196.4 2-5.7 3.8-10.2 4-9.9.2.2-.3 17-1.1 37.2-.9 20.3-2.1 58.1-2.7 84-1.1 41.9-1 47.8.4 54 5.3 23.4 14.8 32.1 35.2 31.8 17.1-.2 28.8-8.6 49.2-35 24.9-32 41.4-66.8 69.3-145.8 6-17 7.9-21.3 8.3-19.3.6 2.2 10.5 73.5 15.7 113.2 5.2 39.4 10.3 64.5 14.7 72.7 6.7 12.3 21.3 14.9 37.9 6.8 11.1-5.4 24.4-18.9 42.9-43.5 20.4-27 33.1-48.8 63.1-108 10.7-20.9 19.4-37.4 19.4-36.7.2 12.1 4.9 68.9 7.5 91.6 3.8 31.8 9.9 74.5 11.6 81.1.6 2.2 2.8 7.7 4.9 12.1 6.4 13.8 14.7 19.6 29.9 21 17.6 1.7 37.4-11.1 54.3-35.1 16.8-24 32.3-53.8 60.3-116.3 8-17.8 11.2-23.9 11.7-22.5.4 1 3.9 16.9 7.8 35.3 7.9 37.2 14 62.2 17 70.4 1.2 3 3.8 8.1 6 11.4 10.3 16 23.2 22.5 39.7 20.2 16.4-2.2 29.4-8.9 41.9-21.4 23-23.2 40.4-54.6 68.5-124.4 3.7-9.3 5.6-12.8 6-11.5.4 1 4.8 18.7 9.8 39.3 13.9 56.7 20.7 75.2 32.3 87.6 7.5 8 13.4 11.1 23.8 12.6 13.9 2.1 27.9-1.5 42-10.7 15.2-9.8 25.5-20.8 40.9-43.5 11.7-17.2 20.6-33.2 37.4-67 12.9-26.1 15.2-30.1 15.8-28 .5 1.4 5.8 27.2 11.8 57.5 13.8 69.2 15.9 76.4 25.8 85.6 11 10.3 19.5 13.5 33.3 12.6 20.1-1.4 37.7-10.8 59.4-31.7 21.2-20.5 41.2-49.2 70.1-100.7 7.1-12.8 13.1-23 13.3-22.9.1.2 1.8 9.7 3.8 21.2 5.3 31.5 9.8 49.8 17.1 69.3 10.5 28.2 22.1 43.1 37.8 48.7 7.2 2.5 25.3 3.1 33.6 1 16.2-4 38.5-19.2 53.5-36.4 7.8-8.9 23.8-30.4 31.8-42.9 2.5-3.9 12.5-20.6 22.2-37 30.1-51 44.7-74.5 45.5-73.1.4.7 4.2 18.6 8.4 39.8 11.8 59.1 15.3 74.6 18.1 80.3 6.4 12.7 17.2 22.6 29.1 26.6 14.2 4.8 34.9 1.2 52-9 7.8-4.7 25.7-22.1 34.6-33.7 12.6-16.5 26.7-39.3 38-61.7 7.7-15.2 7.2-15.7 8.6 9.1 4.1 73.7 7.4 90.1 21.2 103.5 7.9 7.8 15.2 11.1 25.5 11.7 19.5 1.1 35.1-5.3 50-20.4 6.1-6.2 20.5-24.6 28.2-36.1 7-10.3 22.8-38.5 33.2-59.1 5.4-10.9 10.4-20.4 11-21.2 1.3-1.6.8 19.6-1.1 58.7-1.3 25.8-.3 32.8 6.2 45.3 8.3 16 20.8 23.1 40.3 23.1 25.8 0 53.4-16.9 75.9-46.5 7.3-9.6 21.2-31.3 29.1-45.4 3.1-5.6 6-10.2 6.2-10.2.3 0 .3 12.9-.1 28.7-.5 23.7-.4 30.2.8 36.4 2.9 14.2 11.3 28.8 20.3 34.9 2.3 1.6 7.7 4.3 12 6.1 10.2 4.1 24.9 5.1 36.7 2.5 18.9-4.2 41.6-19.7 58.4-39.9 10.5-12.6 25.8-33.3 33-44.7 6.9-10.9 42.1-69.6 50.9-84.8 3.2-5.6 6.1-10.2 6.5-10.2.8 0 6 21.8 13.4 56 13.1 60.3 23.8 87.9 41.3 107.1 4.6 5 14.2 12.8 14.2 11.5 0-.3-1.6-2.7-3.6-5.3-8.5-11.1-13.9-25.4-17.9-46.8-3.3-18.2-4.3-31.9-6-79.5-2.5-70.7-5-84.8-17.1-96.4-6.3-6.1-14.4-9.8-22.4-10.4-9.8-.6-16.3 2.2-25.8 11.2-7.7 7.3-31.1 35.5-65.7 79.1-10.9 13.7-22.3 28.1-25.4 32-6.5 8.2-27.1 31.3-32.8 36.8l-4 3.8-.6-7.7c-.4-4.2-.7-17.6-.7-29.8-.1-38.8-1.8-87.5-3.5-97.3-1.6-9.8-7-24.5-11.2-30.5-3.1-4.6-9.7-9.1-16.5-11.4-7.5-2.5-17.1-1.5-25.3 2.5-10.1 5-16.9 13.2-26.7 32.6-11.1 21.9-36.4 69.2-45.5 85-9.8 16.8-25.2 40.2-29.1 43.8l-3 2.9-.6-13.4c-.3-7.3-1-35.1-1.6-61.8-.5-26.7-1.4-51-1.9-54-.6-3-2.5-10.1-4.2-15.7-3.8-12.2-8.2-18.5-15.4-22.2-6.4-3.4-16.8-3.9-24-1.3zM3123.8 1764.5c-.3.3-129.2 1-286.4 1.5-251.4.8-503.1 2.7-613.9 4.5-69.7 1.2-365.1 7.4-376.5 8-6.3.3-82.8 3.3-170 6.5-87.2 3.3-166.1 6.5-175.5 7-9.3.6-71.7 3.9-138.5 7.5-131 7-152.5 8.2-260 15-152 9.6-201.4 12.6-277 17-94.2 5.4-135.5 7.5-151.3 7.5h-11.9l-2.8-3c-3.3-3.5-3.9-3.6-22.9-1.6-15.8 1.7-18.1 3-18.1 10.2 0 6.2 2.1 8 12 10.4 14.5 3.5 40.5 4.5 80 3.1 50-1.7 211.8-9.9 378-19.1 79.5-4.4 188.4-10 242-12.5 53.6-2.5 121.1-5.6 150-7 28.9-1.4 118-4.5 198-7 80-2.4 150.5-4.7 156.5-5 12-.6 67.3-1.5 272.5-4.5 146.5-2.1 537.5-3.6 561-2.1l13.5.8-22.5.1c-20.4.2-101.5 1.3-292.5 4.2-37.4.6-100.8 1.9-141 3-40.1 1.1-121.6 3.4-181 5-82.9 2.2-146 4.7-271.5 10.5-153 7-173.3 8.2-316.5 18-84.1 5.8-166 11.6-182 13-15.9 1.4-80.1 6.8-142.5 12-268.1 22.5-459 39.8-475.3 43.1-4.7 1-6.1 6-2.7 9.4 1.6 1.6 3.3 2 8.8 2 3.7 0 11 .3 16.3.6l9.6.7-.5 6.8c-.4 5.6-.1 7.5 1.8 11.3 2.4 5 6.5 8.7 11.7 10.4 2.5.8 21.3 0 81.5-3.8 115.4-7.3 126.4-7.8 434.8-22.5l283.5-13.5 303-8c166.7-4.3 313.1-8.2 325.5-8.5 19.5-.5 149.8-2.6 566.5-9 121.2-1.8 162.2-2.8 245.5-6 95.7-3.6 109-4.2 180.3-8.8 64-4.2 64.8-4.2 64.2-2.2-2.5 8.4-1.1 15.2 4.4 20.6 3.5 3.6 9.1 5.9 14 5.9 3.2 0 62.5-24.7 77.4-32.2 9.2-4.7 12.3-6.8 14.2-9.7 5.1-7.7 5.1-17.5 0-25.2-5.5-8.4-20.5-11.1-47-8.5-19.8 1.9-95.8 7.6-96.3 7.1-.2-.2.4-1.8 1.4-3.6.9-1.9 1.9-6.5 2.2-10.3.5-6.6.7-7.1 4.7-11 5.1-4.8 7-10.6 6.1-18.1-1.5-13.3-14.6-20.5-37.2-20.5-3.9 0-7.3.2-7.6.5zm-68 65.5c1.2 1.6 2.2 3.1 2.2 3.4 0 .7-16.7 1.6-74 3.6-30.5 1.1-72.1 2.7-92.5 3.5-33.9 1.4-108.2 2.7-574.5 10-169.3 2.6-197.6 3.2-338 7-50.3 1.4-176.8 4.7-281 7.5-190.3 4.9-201.3 5.3-234.5 7.1-55.1 2.9-478.5 22.9-481 22.7-1.6-.2 72.6-6.1 165-13.1 124.6-9.5 202.1-14.8 300-20.7 72.6-4.3 134.3-8.1 137-8.4 2.8-.3 86.5-3.7 186-7.6 165.1-6.3 196.2-7.3 354-10.5 228.8-4.6 479.5-6.9 792.6-7.3l136.5-.2 2.2 3zM6507 1972.4c0 1.3 8.2 22.1 13.4 34.1 8.9 20.3 21.8 44 33.1 60.7l3.4 5.1-7.1 7.6c-13.7 14.7-27.1 31.3-34.1 42.3-4 6.4-10.7 19.2-10.7 20.7 0 .5 3.9-1.7 8.8-4.9 4.8-3.2 17.3-10.2 27.7-15.7 10.5-5.5 23.2-12.5 28.3-15.7 5.1-3.1 9.4-5.6 9.5-5.6.2 0 6.6 6.2 14.3 13.8 18.6 18.3 65.4 57.2 65.4 54.3 0-1.6-13.6-31.2-22.4-48.9-7.3-14.6-13-25-21.5-39.3l-2.1-3.6 11.7-9.5c16.6-13.3 33-25.9 45.8-35.1l11-8-14 .6c-22.5 1-43.8 6.5-65.5 16.8l-10.5 5-8.9-9.8c-12-13.1-23.7-24.4-37.6-36.1-14.9-12.6-38-30.1-38-28.8zM5659 1987.5c0 1.2 6.4 13.2 15.6 29.3 11.6 20.2 26.5 42.8 40.8 61.9 5.8 7.8 10.6 14.4 10.6 14.7 0 .2-2.8 2.1-6.2 4.2-22.7 13.6-53.4 36.7-61.4 46.4l-2.9 3.4 4.9-2.8c2.7-1.6 22.2-9.7 43.4-18.2l38.5-15.3 7.4 6.9c20.5 19.1 50.8 40.6 79.4 56.3 3.7 2 7.9 4.1 9.4 4.7 2.6 1 2.7 1 1.4-.9-5.9-8.3-25.6-35-42-56.8l-19.8-26.3 6.7-3.7c14.5-7.9 28.1-15.9 38.7-22.6 13.5-8.6 41.5-28 41-28.5-.6-.6-32.4 8.9-51.3 15.3-10.3 3.5-25.4 9.2-33.7 12.5-8.2 3.4-15.7 6.3-16.5 6.3-.8.1-5.6-4.3-10.6-9.8-18-19.8-40.6-40-63.9-57.1-13.1-9.6-29.5-20.7-29.5-19.9zM4878.6 2008.7c4 9.7 15.6 32.8 21.4 42.3 4.9 8.3 16.2 25.2 25.4 38.3.5.9-4.3 6.3-15.4 17.2-19.7 19.5-37.3 39.2-42.3 47.6-2 3.5-3.4 6.5-3.2 6.8.3.2 2.2-1.1 4.3-3.1 4-3.8 11.6-9 31.9-21.6 7.2-4.6 19.1-12.5 26.3-17.8l13.2-9.5 9.7 9.3c22.8 22 56.6 45.6 83.6 58.3 19.8 9.3 30.5 13.1 47.8 16.9 2.3.6.9-1.3-8-10.2-10.3-10.2-16.2-17.3-45.2-53.3-7-8.6-20.9-23.8-31.6-34.5l-19.1-19.2 11.1-11.3c11.3-11.6 32.5-35.8 32.5-37.1 0-1.4-23.2 12.2-45.3 26.6-9.9 6.3-14.3 8.7-15.2 8-.7-.5-6.8-5.2-13.5-10.4-19-14.8-46.5-33.6-65.2-44.4l-4.8-2.8 1.6 3.9zM6949 2057.6c-1.9.2-8.4.9-14.5 1.5-47.7 4.6-106.5 22.1-158.8 47.2-13.4 6.4-16.4 8.3-14.8 8.8 2.8 1.1 31.8 5.5 47.6 7.3 47.3 5.5 95.3 4.4 135.5-3 38.4-7.1 80.6-21 131-43.2 22.6-10 23.6-8.4-8-12.6-33.2-4.4-51.1-5.7-83.5-6.1-17-.2-32.6-.1-34.5.1zM5445.5 2070.7c-51.5 2.6-109.9 16.5-172 40.9-10.4 4.2-19.4 7.9-19.8 8.3-1.9 1.9 35 3.6 77.3 3.6 35.3 0 46.6-.4 60-1.8 42.9-4.8 78.2-13.4 142.5-34.9 18.2-6.1 33.6-11.4 34.4-11.8 1.3-.7-14.3-2.3-38.9-4-12.3-.8-69-1.1-83.5-.3zM6227 2082.1c-39.4 4.1-88.8 17.7-130.9 36.1-11.4 5-11.9 4.8 14.8 7.7 27.8 3.1 45 4.1 71.8 4.1 55 0 89.5-6.1 166.3-29.4 18-5.4 23.8-7.6 22-8-15.3-3.7-41.9-7.7-67.4-10.1-17.4-1.6-62.1-1.8-76.6-.4zM4603.4 2089c-20.1 1.4-46.1 6.7-70.9 14.7-15 4.7-44.7 16.6-43.7 17.4 1 .9 21.2 4.5 35.4 6.4 54 6.9 93.3 3 149.5-14.9 19.8-6.4 31.9-9.6 36-9.6 2.4-.1 2.5-.2 1-1.1-14.3-8.3-72.2-15.3-107.3-12.9zM1782.4 2190.4c-11 2.9-23.8 8-45.5 18.1-35.3 16.4-60.4 31.2-120.8 71.4-42.9 28.5-57.9 37.6-80.1 48.5-45.9 22.5-82.7 26.7-112.6 12.7-15.3-7.2-22.7-13.2-52.4-43.1-31.9-32.1-40.5-39.4-53.5-45.6-16.9-8-28-8.5-42.1-1.8-7.9 3.7-15 10.8-30.2 29.9-22.3 27.9-32.3 39.4-43.9 50.6-17 16.4-33.9 26.5-52.8 31.6-9.2 2.5-11.6 2.7-29.5 2.8-16.9 0-20.9-.3-30-2.3-23.3-5.2-43.9-12.6-65.7-23.6-24.9-12.4-36.9-20-94.8-59.7-33.6-23-64.3-34-91.4-32.6-14.8.8-24.6 3.2-40.7 10.2-45.8 19.9-81.6 45.3-107.1 75.8-8.7 10.5-11.8 16.2-13.9 25.9-2.6 12.7.5 18.8 9.6 18.8 8 0 23.9-6.1 26-9.9.5-1.1 1-4.2 1-6.9 0-4-.5-5.4-2.6-7.6-1.5-1.4-3.1-2.6-3.7-2.6-2.8 0 23.4-24.8 35.3-33.4 22.7-16.3 57.1-34.1 77.4-40 29.7-8.7 57.6.7 104.2 35.1 57.1 42.1 90.7 61.4 131.2 75.4 28 9.6 44.9 12.3 72.2 11.6 16-.4 21.4-1 30-3 24.7-5.9 46.3-17.9 68.7-38.3 9.3-8.4 21.2-22.4 41.8-48.9 19.2-24.6 23.8-29.5 27.9-29.5 8.9 0 22.9 11 49.4 38.6 28.5 29.7 45.4 43.5 64.3 52.3 17.9 8.4 31.9 11.4 53.4 11.4 22.4 0 41.9-4.1 67-14 28.9-11.4 52.7-24.9 100.5-57.1 42.3-28.5 66.4-43.7 88.1-55.8 23.9-13.2 52.1-26.5 67.4-31.6 10.6-3.6 12.7-4 18.7-3.6 13.7 1 23.4 7.7 53.5 37 32.5 31.7 46.1 43.2 67.9 57.8 13.7 9.2 36.3 21.4 45.4 24.4 23.7 7.9 49.4 5.3 80.6-8 22.7-9.7 35.7-18.2 74.9-49.4 40.9-32.5 51.7-40.2 70.1-49.3 31.2-15.6 63.1-10.3 116.4 19.5 37.5 21 63.9 31.7 99.8 40.7 40.1 10 71.3 14.4 103.2 14.5 40.1.1 75.4-6.3 111-20 6.3-2.5 31.3-14.4 55.5-26.4 30.3-15.2 45.6-22.3 49.1-22.8 6.8-1.2 16.2.9 24.9 5.4 3.9 2 17.8 10.7 31 19.4 36.6 24.1 58.8 36 86.2 46.4 26.7 10.1 43.6 13.5 70.3 14.3 38.4 1.1 61.5-5.1 110.5-29.7 41.8-21 74.2-29.3 135.5-35 31.6-2.9 94.1-6.8 122-7.6 27-.7 30-1.5 34.8-8.7 2.2-3.4 2.7-5.2 2.7-10.7 0-5.6-.4-7.3-2.8-10.8-4.3-6.6-8.6-8.2-21.9-8.2-27.8 0-147.4 9.8-177.8 14.5-43.5 6.8-77.7 17.6-109.5 34.4-21.7 11.5-44.5 20.2-62.2 23.8-13.8 2.7-42.4 2.5-56.8-.6-34.3-7.2-65-21.4-112.5-51.9-35.7-22.9-48.6-28.3-68-28.5-16.6-.2-20.8 1.4-63.5 23.8-20.3 10.7-42.2 21.7-48.5 24.6-23.2 10.5-52.9 18.6-80.5 22-14.8 1.9-49.3 1.6-64.7-.4-24.7-3.3-55.6-9.7-76.8-15.8-23.9-7-43-15.4-84.5-37.3-32-17-53.2-24.3-77.1-26.7-27.9-2.9-55.5 5.5-86 25.9-11.7 7.8-30.5 22-61.9 46.5-33.1 26-55.4 37.9-80.6 43.2-17.7 3.7-30.4 1.1-50.7-10.5-28.9-16.5-45.4-29.5-78.7-62-24.7-24.1-30.2-29.1-38.8-34.9-16-10.8-25.3-14-41.7-14.7-9.9-.4-12.7-.1-20.6 2zM6869.5 2690.6c-29.9 3.2-64.6 13.2-105.5 30.5-23 9.7-71.4 34.1-121 60.8-73.5 39.7-118.1 60.8-156.5 74.1-35.8 12.5-55.1 17.7-83.2 22.7-15 2.6-17.3 2.7-47.8 2.8-30.5 0-32.8-.1-48-2.8-33.9-5.9-64.8-14.3-80-21.9-26.7-13.4-49.4-28.9-116.6-79.4-16.3-12.2-34.8-25.6-41-29.8-43.3-28.4-85.6-40.7-153.9-44.7-37.8-2.2-81.4 2-115.9 11.2-41.7 11.1-78.4 25-172 65.6-121.3 52.4-203 80-276.6 93.3-43.1 7.7-92.5 8.6-137 2.4-32.1-4.5-78.7-16.1-112-27.9-29.8-10.6-44.3-17.2-108-49.4-71.8-36.3-98.9-46.7-141.5-54.5-33.3-6.1-70.6-7.7-99-4.2-28.7 3.5-61.3 11.7-88.7 22.2-59.9 23-104.6 46.8-172.8 91.9-23.8 15.7-35.7 24.5-66.5 49.2-32.2 25.7-53.1 43.3-63 52.9l-2.5 2.5 4-1.7c2.2-.9 8.3-3.8 13.5-6.4 5.2-2.6 23-10.9 39.5-18.3s37.9-17.2 47.5-21.7c31.4-14.6 125.9-51.9 162-64 35.9-11.9 76.1-21.7 102-24.9 26.9-3.4 69.4-3.1 90.5.5 21.7 3.7 55.6 13.5 73.5 21.4 11 4.8 25.8 12.3 60 30.3 113.1 59.6 172 79.1 275.5 91.4 18.9 2.2 79.3 2.5 98 .5 72.1-7.9 139.4-24.7 216.5-54.2 44.5-17 55.8-21.7 127-53 78-34.3 116.4-48.9 152.5-57.8 29.3-7.3 32.2-7.6 69-7.7 43.5 0 59.8 2.1 89 11.6 20.7 6.7 34.5 15.5 90.6 57.6 40.2 30.1 72.1 52.7 89.9 63.3 39.8 23.9 86.1 37.8 149.5 44.9 35 3.9 57.7 3.7 93-1 51.1-6.7 96.5-19.7 154-44.1 34-14.5 50.2-22.2 128.5-61.6 85.8-43.1 112.7-55 148.5-66 41.9-12.9 50.4-12.6 141.5 5.3 79.1 15.5 130.3 20.7 184.5 18.6 37.7-1.5 76.9-5 119.5-10.7 32.5-4.3 118.4-16.4 121.5-17.1 3.2-.7-5.4-2.2-121-21.8-136.5-23.2-167-29.4-217.4-44-15.7-4.5-38.9-11.3-51.6-15-34.6-10-70-17.7-95-20.5-10.1-1.1-40.9-2-47-1.4zM3214.9 2824.5c-5.9 1.9-13 8.2-16.8 14.8-1.6 2.9-7.5 16.7-13.1 30.7-15.9 40-25.8 59.4-36.3 70.7-6.7 7.3-11.6 6.5-20.5-3.1-6-6.6-9.3-13.8-16.7-37.6-11.7-37.5-19.5-55.5-28.1-64.4-8.7-9.1-20.7-12-32.1-7.7-11.7 4.4-18.1 12.4-22.7 28.5-2.1 7.3-24.5 51.6-34.8 68.7-9 15-16.3 25.2-24.9 34.3-6.5 7-14.5 12-18.2 11.4-4.2-.6-8.3-9.2-27.2-57.2-17.1-43.3-25.4-58.6-36.9-67.7-7.8-6.3-12.2-8.2-20.2-8.7-8.7-.6-15 1.3-21.4 6.4-6.5 5.2-10.2 10.9-19.4 29.9-20.9 43.1-42.9 76.3-59.6 89.8-7.7 6.2-17.9 11.7-21.6 11.7-6.4 0-8.6-1.3-13.5-7.9-6.1-8.1-9.5-15.2-24.4-50.2-18.2-42.7-25.9-56.3-38.9-68.7-9.7-9.2-17.9-13.2-28.5-13.9-8.8-.6-13.6.9-22.2 7.2-5.6 4.2-9.8 10.3-24.1 35-17 29.4-38.9 63.4-50.6 78.5-13.1 17-22.9 25.8-36.2 32.5-8.1 4.2-19.7 4.7-27.1 1.3-7.7-3.5-15.1-10.7-21-20.2-2.7-4.4-12.6-23.4-21.9-42.1-14.6-29.4-17.9-35.3-24.7-44-9-11.5-16.9-18.2-27-23.1-13.2-6.4-26.1-6.7-38-.8-6 2.9-11.5 9.4-18 21.3-12.6 23.1-41.8 70-55.5 89.1-16.4 23-32.9 37.9-42 38-6.1 0-14.9-13.6-39-60.5-23.1-44.9-29.7-55.2-41.7-65.2-8.8-7.4-13.1-9.3-21.2-9.3-5.5 0-7.2.4-11.2 2.9-7.4 4.8-10.5 10.2-18.6 32.4-17.1 46.8-32.3 81.8-40.9 94.3-2.2 3.2-6.3 8.1-9 10.8-4.7 4.6-5.2 4.8-8.9 4.2-8.4-1.6-19.3-16.6-41.1-57.2-7.7-14.4-16-29.2-18.3-33-12.9-21.2-25.8-33.5-37.1-35-6.2-.9-14.4 1.7-19.4 6-5.2 4.5-6.9 8.3-21.6 49.4-21.1 59.3-29.6 78.9-39.1 90.3-6.6 8-10.7 9.9-13.9 6.7-2.7-2.7-16.3-30.9-22.3-46.3-2.6-6.6-9.4-25-15.1-40.9-11.8-32.6-15.3-40.5-20.7-45.9-12.6-12.7-23.3-13-32.1-1-3.8 5.1-5.5 9.6-13.6 34.8-10.3 32-21 57.1-30.6 71.6-4.7 7.1-13.4 15.9-15.8 15.9-3 0-6-5.6-31.1-57.5-19.1-39.7-30.3-52.6-48.8-56.5-10.8-2.2-20.8 1.5-28.1 10.6-4.6 5.6-4.9 6.4-12.6 29.9-11.6 35.4-22.9 62.5-29.5 70.4-4.1 4.8-7.4 6.2-11 4.6-5.5-2.3-8.8-6.9-33-45.5-28.3-45.1-41.9-58-62.2-58.9-7.5-.3-9 0-13.9 2.4-6 2.9-12.3 9.9-15.5 17-1 2.2-4.9 14.2-8.8 26.5-3.8 12.4-9.3 29.2-12.1 37.5-6 17.4-15.6 38.3-17 36.9-.5-.5-5-11.9-10-25.4-25.9-69.7-34.7-90.3-46.6-108.1-6.1-9.2-10.8-12.2-19.5-12.7-5.6-.4-7.7 0-12.1 2-7.5 3.5-9.6 7.8-16.2 33.9-9.5 37.5-17.5 61-26.4 76.8-4.3 7.7-13.7 17.8-17.4 18.7-4.7 1-10.3-5.6-28.5-33.7-24.1-37.3-31.9-45.1-44.6-45-9.3 0-18.8 7.1-21.9 16.2-6.3 18-8.7 24.1-14.8 36.4-10.3 20.9-18.2 29.8-29.6 33.1-6.3 1.8-11.6.8-16.2-3.1-1.9-1.5-7.8-11.7-15.8-27.2-13.2-25.3-17.9-32-26.8-38.5-5.9-4.3-12.3-4-19.4.9-7 4.9-8.3 6.8-14.2 21.2-5.8 14.2-13.7 30-19.1 38.7-8.5 13.4-26 26.4-35.6 26.4-12.1 0-15.9-4.7-36.2-44.5-9-17.6-18.1-34.9-20.3-38.4-8.7-14.3-18.7-24.4-27.2-27.1-9.1-2.9-23 1.4-28.4 9-1.6 2.1-5.5 10.3-8.7 18.2-7.8 19.5-17.1 38.8-23 47.7-5.7 8.7-16 19.2-20.5 21.1-3.2 1.3-3.4 1.2-5.6-1.6-3.4-4.2-14.3-30.3-20.3-48.4-2.8-8.5-9.1-30.1-14.1-48-4.9-17.9-9.8-33.6-10.8-35-5.7-7.8-18.7-7.7-24.5.1-4.1 5.6-3.6 9.2 6.3 45 10.4 37.6 16.2 55.3 24.5 75.5 10.8 26.2 17.7 36.8 26.9 41.7 5.7 3 18.7 2.9 26.7-.2 11.9-4.5 23.8-15.2 34-30.4 8.7-12.9 13.4-23.5 27.4-60.7l2.8-7.4 4.3 4.8c5.8 6.6 13.9 21.5 29.4 53.6 13.1 27.4 17 33.7 25.2 41.7 7.1 6.9 20.5 12.3 30.3 12.3 16.7 0 35.8-9 49.1-23.1 11.4-12.1 18.8-24.6 29-48.9l4.8-11.5 11.5 23.5c9.9 20.4 12.1 24.2 16.8 28.7 6.6 6.5 12.1 9.8 19.8 11.7 7.6 2.1 19.7 2 26.6 0 23.3-6.9 39.5-27.4 54.4-69.2 2.6-7.2 5.1-13.2 5.6-13.2 1.2 0 8.6 11.3 24.2 37 15.1 25 21.5 32.7 30.3 36.6 10.4 4.6 23.5 4.1 33.9-1.5 6.8-3.6 17.1-14 22.8-23.2 9.6-15.4 20.7-44.2 28.8-75.1 1.9-7.1 3.7-12.8 4-12.8 2.1 0 15.3 34.2 30.4 79 6.8 20.1 13.9 40 15.8 44.2 12.8 27.9 40.5 28.6 58.8 1.6 9.9-14.5 22.8-48 34.5-89.7l4.9-17.3 6.2 6.5c7.2 7.6 17.4 22.6 32.9 48.2 13.9 23.1 23.7 36.1 30.6 40.8 8.8 6 15.9 8.1 26.8 8.2 8.6 0 10.1-.3 16-3.1 17.8-8.5 27.3-22.1 40.8-58.5 5.4-14.5 14.1-41.2 16.3-49.7.7-2.8 1.6-5.2 1.9-5.2 1.2 0 4.7 4.4 9.3 11.5 5.3 8.3 13.7 25 27.7 55 5.7 12.1 12 24.8 14.2 28.2 7.6 12.1 17.4 18.3 28.9 18.3 30.5 0 53.7-30.3 75.5-98.5 2.6-8.3 5-15.3 5.3-15.7.4-.4 4.4 10.2 9 23.5 17.6 51.2 31.3 84 38.4 92.3 2 2.2 6.3 5.5 9.6 7.2 16.3 8.7 35.7 5.2 50.3-9.1 15.9-15.4 26.8-38.9 50.4-108.2 4.8-14 9-25.5 9.3-25.5 1.4 0 13.5 20.7 25.6 44 20.5 39.3 27.1 49.7 39.1 61.8 13.9 13.9 35 18.1 51.3 10.1 8.5-4.2 20-15.6 27.6-27.3 10.4-16 26.6-53.8 39.5-92.1l5.7-16.9 3.2 4.4c5.9 8.2 16.7 28.2 32.9 61 21.8 44.4 29.8 56 43.2 62.4 6.2 2.9 7.1 3.1 18.5 3.1 10.6-.1 12.7-.4 18.3-2.7 14.4-6 27-16.3 42.3-34.7 13.7-16.4 43-61.4 61.9-95.1 5.1-9.1 9.8-17.1 10.4-17.8.9-.9 2.3-.5 6.3 2.4 10.4 7.3 18.1 19.6 34.2 54.9 6 13.2 13.5 28.8 16.6 34.7 13.9 25.9 33.7 42.5 55.2 46.3 41.3 7.4 75.4-14 114-71.5 9.8-14.7 27.1-42.8 37.8-61.7 12.3-21.7 11.1-21 18-10.3 6.7 10.3 12.4 22.5 24 51 13.6 33.5 19 45 25.6 54.5 13.1 19 28.1 26.3 51.9 25.2 8-.4 12.1-1.1 17.3-3.1 24.9-9.4 48.6-32.4 70-67.8 3.8-6.2 12.1-22 18.5-35s12.2-23.6 12.7-23.4c1.8.5 11 22.4 20.5 48.6 17.1 47.6 22.2 58.3 31.2 66.4 16 14.5 33.4 17.2 55.6 8.6 9.7-3.7 15.6-7.6 24.6-16 17.6-16.5 33.3-39.8 54.2-80.4 5-9.8 9.4-17.4 9.7-17 .3.5 3.1 9.7 6.3 20.4 8 27.2 13.1 38.4 23 50.4 12.7 15.4 30.3 24.6 47.3 24.7 11.7 0 18.1-1.4 28-6.2 21.8-10.7 39.1-37.2 60.1-91.8l4.8-12.4 4.3 7.7c18.8 33.3 28.5 47.5 40.9 59.6 8.4 8.2 14.8 12.4 26.9 17.6 18 7.8 45.6 11.8 55.5 8 6-2.3 12.1-9 14-15.7 2-6.6 2-8.2.1-14.7-3.1-10.2-10.4-15.6-23.4-17.2-4.3-.6-11.4-1.9-15.7-3.1-22.3-5.7-30.1-13.3-52.9-51.4-19.7-32.9-28-43.2-39-48.5-6.1-2.9-20.7-3.7-27.6-1.5zM2517.6 3485.5c-7.6 5.1-15.4 11-23.3 17.7-7.9 6.6-44.7 31.3-86.3 57.9-89.1 57.1-185.7 114-225.6 133-14 6.6-31.1 13.2-32.7 12.6-1.7-.6 54.7-56.4 106.9-105.9 49-46.4 52.5-49.9 61.7-63.3 5.8-8.4 6.2-9.4 6.2-14.5 0-7-2.8-11.2-9-13.6-4.5-1.7-4.6-1.7-13.1 1.1-10.6 3.5-19.2 7.8-76.4 38.4-74.5 39.9-148.7 76.7-150.8 74.7-.2-.3 13.5-17.9 30.5-39.3 36.1-45.2 36.7-46.1 42.7-57.6 5.2-9.9 5.9-15.3 2.7-21.5-2.3-4.6-8.4-8.2-13.7-8.2-6.6.1-16.6 5.3-34.1 17.7-58.4 41.6-123.5 84.9-168.8 112.3-24.4 14.8-81.5 45.9-81.5 44.4 0-.3 20.4-26.1 45.3-57.2 49-61.4 50.9-63.8 61.2-78.7 6.5-9.2 7-10.3 7.3-16 .6-12-7.2-19-21.3-19-8.7 0-13.4 2.1-23.6 10.8-11.7 10-49.7 36.7-107.9 75.9-35.4 23.8-47.1 31.3-69.4 44.7-25.2 15.3-25 15.4-4.6-5.8 44-45.8 52.1-55.1 60.9-69.6 8.4-13.8 1.3-29.2-13.8-30.3-4.4-.3-6.7.1-9.7 1.6-2.1 1.2-17 12.2-33.1 24.5-58.5 45-114.2 84.1-152.3 106.9-29 17.4-28.5 17.4-13 .2 25.7-28.7 58.4-63.7 82.4-88.2 29.4-30 31.8-33.8 28.5-45.5-2.4-8.8-13.6-14.6-22.4-11.5-2.3.8-12.7 6.9-23.3 13.6-30.5 19.5-119.9 74.4-141.2 86.9-36.9 21.6-72.7 38.3-88.2 41.2-4.4.8-6.2.1-3.8-1.4.6-.4 9.8-11.1 20.4-23.8 10.6-12.8 30.1-35.9 43.3-51.3 26.2-30.8 32.9-39.1 42.2-53.3 5.4-8.2 6.1-9.9 6.1-14.2 0-6.4-1.8-10.7-6.3-14.6-10-8.8-20.1-5.2-53.4 19.4-18.3 13.5-76.8 55.4-102.3 73.3-32.2 22.6-109.2 73-111.5 73-.9 0 32.5-40.4 69.1-83.5 8.8-10.5 16.9-20.5 17.9-22.4 1.2-2.5 1.6-4.9 1.3-8.8-.7-8.4-6.1-14.1-14.1-15-7-.8-11.2 1.2-21.1 10.1-32.5 29.1-116.4 94.3-153.6 119.2-27.6 18.6-76.7 47.1-74.5 43.3 4.8-8 44-56.5 72.7-89.9 32.1-37.3 40.6-46.5 50.4-54.3 9.4-7.6 18-16.8 20-21.4 3.2-7.4.2-17.4-6.4-21.5-2.8-1.7-5.2-2.3-9.8-2.3-5.9 0-6.3.2-14 6-4.3 3.3-12.8 10.8-18.9 16.6-10.1 9.7-44.7 36.4-72 55.6-69.4 48.7-100.4 68.5-136.5 87.1-16.7 8.6-31.6 15-32.5 14-.5-.5 47.2-63.5 77.4-102.3 32.1-41.3 43.6-57.5 44.6-62.8.4-1.8.2-5.2-.4-7.4-2.2-8.2-7.8-12.3-16.9-12.3-6.5 0-10.3 2.6-53.2 36.3-58.5 46-114.5 88.1-123.3 92.9-2.1 1.1-2 .9.4-2.3 8.2-10.8 46.2-63.9 51.6-72.1 8.3-12.7 15.5-29.5 15.6-36.4.1-14.6-14.2-22.1-28.3-14.9-7.7 3.9-16.2 9.8-24.5 17-13 11.4-89.9 75.9-105.9 88.9-16.7 13.6-53.6 41.6-54.8 41.6-.7 0-.1-1.1 38.2-64.9 34.9-58.1 34.5-57.3 36.5-63.6 2.1-6.7 1.5-17.1-1.3-22-2.1-3.6-9.3-7.5-13.9-7.5-4.4 0-10.3 2.5-12.8 5.4-1.1 1.2-11.4 13.2-22.8 26.4l-20.9 24.2h-4.4c-8.1 0-10.1 1.6-24.1 19.1-15.7 19.8-43.5 56.6-45.1 59.6-3.2 6 .5 17.2 6.8 20.5 4.1 2.1 12.8 2.3 18.3.4 2-.8 3.7-1.2 3.7-1.1 0 .2-1.8 3-4.1 6.4-6.5 9.8-8.2 15.7-8.3 29.2-.1 11.2 0 11.7 2.7 15.2 3.6 4.7 9.4 7.7 14.9 7.7 5.1 0 23.4-5.1 33.1-9.2 3.9-1.7 11.2-5.5 16.1-8.5 13.8-8.4 54.1-39.2 82.1-62.7 6.6-5.6 12.9-10.8 13.9-11.6 1.1-.8-4.7 7.5-12.8 18.4-17.7 23.7-20.4 28-23.9 36.9-3.2 7.9-3.4 13.6-.8 19.3 4 8.7 10.9 11.4 24.4 9.5 17.2-2.4 26.9-7.2 59.2-29.3 22.3-15.2 54.3-38.6 66-48.2 2.7-2.3 4.5-3.4 4-2.6-1.3 2.2-21.5 28.7-30.9 40.5-9.4 11.9-13.1 19.3-15.2 30.6-2.7 14.3-1.1 21.9 5.7 26.6 2.3 1.7 22.2 5.3 29.1 5.3 7.3 0 18.6-2.6 28.5-6.6 20.9-8.4 58.9-29.5 91.6-51 8.7-5.7 16-10.4 16.3-10.4.6 0-2.3 3.7-20.4 26.5-5.7 7.1-11.6 15.3-13.3 18.1-5.8 10.2-8.7 29-5.4 35.3 2 4 6.9 7.9 11.6 9.1 6.1 1.7 33.9-2.8 46.6-7.6 19.3-7.1 46.3-22.5 84.8-48.2 12.7-8.5 23.3-15.6 23.6-15.8.4-.2-.2 1.3-1.2 3.2-2.6 5.2-3.2 11.1-1.9 18.4 1.5 8.3 3.2 11.4 7.8 14.5 6.3 4.2 10.9 4.2 26.1.1 27.4-7.5 42.6-15.8 109.1-59.8 17.9-11.9 41.5-28 52.5-35.8 11-7.8 19.3-13.4 18.5-12.4-.8 1.1-5.3 6.3-10 11.7-16.6 19.1-18.2 21.3-20.8 26.7-3.7 8-3.7 18.5.2 30.3 3.6 11.1 5.9 14.6 11.8 17.7 4.6 2.4 4.6 2.4 17.5 1.2 31.9-3.1 38.8-4.9 64-16.2 21.8-9.7 66.9-34.8 92.8-51.6 1.7-1-5.3 7.3-15.5 18.5-26.2 28.9-28.4 31.4-35.7 42.4-7.3 11-8.8 15.1-7.9 21.6 1 7.6 4.6 11.7 13.9 16.2 15.2 7.3 27.3 6.2 48.2-4.1 25.4-12.6 64.6-35 81.4-46.5l8.2-5.6-2.5 5c-5.1 10-4.3 18.9 2.4 25.3 4.7 4.4 10.3 5.8 23.4 5.8 18.5 0 31.9-5.5 72.6-30 29-17.4 53.1-32.9 80.2-51.6 10.3-7.1 24.3-16.7 31-21.3 6.8-4.7 11.6-7.6 10.7-6.5-.9 1-10.6 13.1-21.6 26.9-10.9 13.7-22.9 28.7-26.6 33.3-6.6 8.1-11.1 16.1-15.7 27.5-4.4 11-1.6 21.3 7 25.7 3.4 1.7 6 2 18.8 2 17.6 0 24.1-1.4 41.8-9 18.6-8 68.1-36 102.9-58.3 16.7-10.7 67.8-45.1 82.3-55.4 5.7-4.1 10-6.8 9.6-6.1-1.2 2-22.4 28.5-27.7 34.7-7.7 9-10.1 15.9-8.7 24.8 1.2 7.2 5.2 15.7 8.4 17.8 5.8 3.8 9.4 3.7 26.3-.6 21.5-5.5 30.8-8.8 50.2-17.8 18.1-8.4 63.2-32 99.6-52.1 12.7-7 24.1-13.2 25.5-13.9 2.8-1.4 3.9-2.5-33.5 32.9-32.3 30.5-92.2 89.3-95.3 93.4-3.9 5.3-5.5 12.8-4.7 21.9 1.1 13.5 4.5 18.5 13.5 20.2 3.9.7 33.6-5.6 47.5-10.1 23.8-7.6 62.4-26.7 108-53.2 9.9-5.7 19.6-11.3 21.5-12.4l3.5-2-3.5 2.8c-8.1 6.4-12.8 12.2-14.6 17.7-4.5 14.3 4.5 30.6 18.7 33.6 12 2.6 22.7.4 44.8-9.3 8-3.5 20.2-8.7 27.1-11.6 13.8-5.8 38.4-17.9 60.1-29.5 29.5-15.8 99.7-57.1 129.5-76.1 2.9-1.9-2.3 4.4-20.7 24.6-17.8 19.7-31 39.5-32.5 48.8-1.3 8 2.7 16.1 9.4 19.6 1.5.7 7.1 2.4 12.5 3.6 8.8 2 10.7 2.2 17.5 1.2 11.7-1.7 16.8-3.7 41.2-16 31.3-15.9 43.3-22.6 85.5-48 .5-.3-2.7 3.7-7.3 8.9-11.2 13-14.7 19.5-14.6 27.9 0 14.5 10.1 24.7 25.6 25.8 5 .3 8.4-.1 14-1.8 10.9-3.3 41.2-18.5 58.7-29.4 8.5-5.3 14.8-8.9 14-7.9-.8 1-6.6 7.6-12.9 14.8-13.1 14.8-21 24.5-26.5 32.5-3.5 5.2-3.7 5.9-3.3 12 .5 9.2 2.9 12.2 13.7 17.4 7.2 3.4 9.8 4.1 16.3 4.4 11.2.6 21.8-1.9 37.2-8.7 53-23.6 74.9-34.7 117.8-59.7.4-.3-.1 1-1 2.8-2.4 4.6-2.1 13.3.5 18.4 2.6 5 11.6 12.7 18 15.6 5.7 2.5 16.6 2.9 25.3.9 7.1-1.7 31-11.6 45.2-18.7 11.9-6 34-18.9 45.3-26.4 11.7-7.9 11.1-7.8 10.7-.4-.7 12 4.9 22.5 13.9 26.4 14.4 6.1 34.2 1.9 67-14.6 22.3-11.1 52.4-28.7 83.4-48.7 7.2-4.7 13.1-8.3 13.3-8.2.1.1-.2 1.4-.8 2.9-1.7 4.6-1.2 14.3 1 18.5 4 8 13.7 13 22.4 11.5 5.1-.8 10.4-3.5 13.2-6.6 2.7-2.9 8.3-16.2 16.9-39.8 6.1-16.8 6.8-19.4 7.2-28.2.5-8.5.3-10.1-1.7-14.2-1.5-3.3-3.5-5.4-6.7-7.2-3.9-2.4-5.2-2.6-11.6-2.2-8.4.6-17.8 4.1-27 10.1-8.3 5.3-68.6 42.2-86 52.6-15.3 9.1-43.7 24.4-44.2 23.9s21.5-26.6 43.5-51.7c10.7-12.3 20.1-23.4 20.8-24.7 3.9-7.3 1.9-17.8-4.3-23.3-3.9-3.4-8.5-4.6-15.4-3.9-4.4.4-7.5 2.4-34.7 22-75.3 54.2-103.9 73.4-134.8 90.4-4.3 2.4-8 4.4-8.1 4.4-1.2 0 50.9-48.6 78.2-72.7 17-15.1 18.3-17 18.3-24.9 0-7.9-3.4-13.2-10.5-16.5-7.9-3.6-13.5-2.2-24.9 6.5-21.7 16.5-140.1 88.4-191.1 116.1-29 15.7-69.9 35-67.3 31.7 6.5-8.4 46.7-53.4 69.3-77.7 21.7-23.3 35.8-41.3 37.7-48.1 2.9-10.6-5.7-21.4-16.9-21.4-5.6 0-18 5.9-29 13.7-23.9 17-89.7 60.8-108.8 72.3l-4 2.4 5-5.6c2.8-3.1 16.7-18 30.9-33 31.9-33.6 44-47.5 45.6-52.3 3-9-1.1-18.8-9.4-22.6-9.1-4.1-16.1-1.7-40.4 14.4-39.7 26.2-111.9 71.4-141.8 88.7-15.9 9.2-49.4 27-50.8 27-.4 0 2.4-3.6 6.3-8 14.9-16.9 71.9-82.6 78.7-90.6 14.9-17.7 17.4-33.9 6.7-42.1-4.2-3.2-14.3-4.4-18.4-2.2-1.3.7-20.8 12.7-43.4 26.7-90 56-142.6 87-196.3 115.6-17.5 9.4-41.3 20.8-41.9 20.3-.4-.5 26.1-23.3 68.2-58.7 16-13.4 43.2-36.4 60.5-51 17.3-14.6 35.8-30 41-34.1 12.5-9.9 15.7-13.7 16.6-19.4.8-5.3-1.3-12-4.9-15.3-5.3-4.9-15.2-5.7-21.1-1.7zM6399 3537.7c-64.9.8-246.6 6-341 9.8-170.4 6.9-469.8 23.9-658.5 37.6-73.5 5.3-394.7 30.3-423 32.9-101.3 9.5-205.5 23-308 40.1-35.5 5.9-112.7 19.8-113.2 20.3-.3.3 4.1.6 54.7 3.1 107.3 5.3 223.9 5.9 316 1.5 68.5-3.3 49.1-1.6 347.5-30 180.6-17.1 393.1-34 561-44.5 214.4-13.4 375.5-19.4 570-21.5 100.6-1 116.5-1.3 185.5-3.5 80-2.6 122.8-4.5 199.5-9 61-3.6 76.1-5.3 101.3-11.5 6.8-1.6 13.4-3 14.8-3 1.3 0 2.4-.4 2.4-.9 0-.4-12.3-1.1-27.2-1.4-20.9-.4-38.7-1.6-75.8-5.1-145.7-13.5-239.9-17-406-14.9zM7201.5 3918.1c-13.2 1.3-33.9 2.1-68 2.8-52.4 1.1-70.5 1.8-147 5.6-94.5 4.7-112.9 5.4-237.5 8-141.2 3-163.1 3.9-311 13-130.2 8-145.7 8.8-269.5 13.5-125.6 4.8-219.1 9-345 15.5-36.8 1.9-119.9 6.2-184.5 9.5s-138.4 7.1-164 8.5c-218.3 11.6-254.7 12.9-414 14.5-271.9 2.8-387.7 8.6-471.5 23.5-26 4.6-40.1 8.1-64.3 16-30 9.8-42.5 16.5-55 29.9-12 12.9-19.2 25.7-26.5 47.6-9.1 26.9-12.7 50.3-12.7 82.3 0 45.4 8 82 24.6 112.4 6.5 11.9 23.5 30.2 31.9 34.3 7.4 3.6 16 5 24 3.9 5.9-.8 8.7-2 30.8-13.8 8.3-4.5 12.2-5.8 25-8.7 41.2-9.2 97.1-15.1 180.2-18.9 70.3-3.2 101.6-3.7 334.5-5.6 117-.9 161.8-1.7 223-3.9 33.2-1.3 314.2-14.6 474-22.5 176-8.7 222-10.8 359.5-16 149.2-5.7 211.8-8.6 300.5-14 112.1-6.8 184.9-9.8 366.5-15 96.7-2.8 140.7-6.2 235.5-18 86.5-10.8 128.8-13.7 164.8-11.6 16.6 1 20.2.9 25.9-.4 12.6-2.9 24.9-11.3 32.3-22 1.5-2.2 6.6-11.7 11.3-21.2 9.2-18.3 13.8-31.9 17.6-52.3 3.5-19.1 4.4-31.4 3.8-57.6-.5-28-1.7-37.5-7.7-61.4-3.6-14-4.9-17.5-13.9-35.6-11.1-22.3-15.8-28.7-26.5-35.6-6.5-4.2-15.9-7.5-23.3-8.2-2.7-.2-13.3.4-23.8 1.5zM3077.1 4222.1c-13 2.5-20.8 14.8-18.7 29.3.7 4.7 8.2 15.2 44.5 61.9l15.4 19.9-8.4 7.5c-15.2 13.7-32.3 31.7-37.4 39.3-4.5 6.8-5 8-5 13.1.1 9.4 5.6 14.9 15 14.9 6.6 0 10.6-2.5 15-9.5 3.5-5.5 20.7-24.5 32.8-36.3l6.4-6.4 24.4 28.8c40.2 47.4 60 69.5 64.4 71.8 5.7 3 19.3 3 25-.1 9.1-4.8 13-11.7 13-22.8 0-10.7-1.6-13.5-17.3-30.4-27.3-29.3-72.2-80.3-72.2-82 0-.5 4.4-4.8 9.8-9.5 7.6-6.7 10.4-8.6 12.7-8.6 1.7 0 4.2-.7 5.5-1.6 4.1-2.7 16-14.7 17.6-17.6 1.8-3.5 1.8-10.1-.1-13.7-1.9-3.8-7.7-6.5-12.6-5.8-6.8.9-23.6 11.9-42.5 27.8l-9 7.7-15.5-19.6c-8.5-10.8-20.5-26.4-26.8-34.6-6.2-8.3-12.5-16.3-13.9-17.8-4.4-4.8-14.2-7.3-22.1-5.7zM853.2 4251.2c-4.7 1-6.5 2.6-45.5 40.2-11.4 11.1-21.1 20.2-21.6 20.4-.4.1-7.9-8.9-16.7-20-8.7-11.2-19.2-23.8-23.4-28.1l-7.6-7.7H733c-6.3.1-9.3 1.5-12.1 5.6-2.7 4.2-2.4 10.2 1.2 19.4 3.1 8.1 5.9 11.5 10.7 12.7 1.7.4 6.8 6.4 16.9 20.1l14.5 19.5-24.9 24.6c-13.7 13.5-28.9 29.1-33.8 34.6-10.5 11.9-23.3 28.7-25.1 33.2-5.2 12.2 6 26.3 20.8 26.3 4 0 8.5-1.6 24.1-8.5 24.5-10.9 29-13.4 31.1-17.8 3.9-8.3.9-18.1-6.5-21.3-2.1-1-3.9-2.1-3.9-2.4 0-1.6 40.2-39.2 40.9-38.4.4.5 12.2 15.7 26.1 33.9 50.1 65.3 57.6 72.4 72.1 68.5 9-2.5 14-9 14.1-18.4.1-7.8-2-11.5-10.3-18.3-10.8-8.8-28.5-27.6-51.9-54.8-11.3-13.2-22.3-26.2-24.4-28.8l-4-4.9 21.5-20.6c40-38.5 43.6-42.2 44.9-47.1 3.7-14-7.4-25.1-21.8-21.9zM1426.5 4261.2c-8.7 3.1-13.9 10.6-13.8 20.3.1 10.6.5 11.1 38.3 42 30.9 25.2 34 28 32.3 29.2-36.6 26.1-79.3 58.2-85.3 64.3-11.6 11.5-14.2 18.8-10 27.4 2.9 6.1 7.6 8.8 16.2 9.4 5.7.4 7.8.1 10.5-1.3 3.7-2 7.3-7.1 7.3-10.3 0-1.5 3.2-4.3 11.8-10.3 6.4-4.5 26.9-19.2 45.6-32.7 32-23.1 34-24.4 36.1-23.1 1.2.8 24.8 19.2 52.4 40.9 27.7 21.7 51.9 40.1 53.9 40.8 4.7 1.7 11.2.9 16.3-2 7.3-4.1 11-15.9 7.6-24.1-2.3-5.4-23.6-24.3-71.2-63.2-12.6-10.3-23.4-19.1-23.8-19.5-.4-.4 8.6-7.5 20.2-15.8 11.5-8.4 22.1-16.5 23.4-18.2 6.8-8 3-22.3-7-26.6-4.2-1.8-10.7-1.8-14.3.1-1.6.8-12.9 8.7-25.1 17.6-12.2 8.8-23.2 16.7-24.4 17.5-2.1 1.3-4-.1-39.6-29.2-20.6-16.9-39.2-31.5-41.4-32.5-4.4-2-11.3-2.3-16-.7zM2322.5 4282.9c-12.7 3.6-22.7 10.8-66.6 47.8-1.4 1.1-2.8-.5-11.9-13.4-13.1-18.7-16.6-23-21.4-26.5-9-6.5-20.6-1.2-20.6 9.5 0 4.9 7.4 19.4 11.1 21.6 1.7 1 6.3 7.2 11.4 15.4l8.5 13.6-16.9 16.8c-18.1 17.9-25.3 27.5-28.5 37.5-2.1 6.7-1.1 12.1 3 15.9 2.2 2.1 3.5 2.4 9.4 2.4 8.1 0 9.1-.7 14.7-10.3 2.5-4.4 8.7-11.5 18.4-21.4 8.1-8.1 15.1-14.8 15.7-14.8.6 0 2.2 2 3.6 4.5 3.6 6.1 18.9 26.4 26.5 35.3 6.7 7.7 21.8 20.8 31.5 27.3 6.8 4.5 11.5 5 18.3 2 7.1-3.3 10.2-12.5 6.9-20.5-.9-2-4.6-5.9-9.7-10-16-12.8-32.7-30.5-49.2-52.2-2.5-3.4-4.7-6.6-4.9-7.1-.3-1 11-11.3 29.9-27l12.1-10.1 7.1.6 7.2.5 4.2-4.4c6.3-6.6 12.7-16.7 12.7-20 0-5.7-2.9-10.7-7.4-12.9-5-2.4-7.2-2.4-15.1-.1zM2881.5 4309.6c-52.3 4-248.6 26.9-291.1 33.9-29.3 4.9-53.4 12.1-74.1 22-13 6.3-16.3 9.7-17.1 17.4-1 10.6 4.4 17.2 14.7 17.9 5.3.4 6.4.1 14.2-4.1 22.3-12.1 51.5-19.4 105.4-26.2 99-12.6 207.9-23 253.8-24.2 21.1-.6 23.1-.8 26-2.7 12-8.1 10.8-26.8-2-31.9-3.9-1.5-21-2.7-29.8-2.1zM2054 4331.5c-68.2 7.8-217.4 22.7-306.5 30.6-6.6.6-13.5 1.5-15.3 2.1-4.4 1.3-9.2 5.5-10.8 9.5-3.3 7.7-.7 18.9 5.3 23.1 5.7 3.9 8.4 4.2 25.1 2.7 35.2-3.3 288.1-26.6 319.7-29.5 26-2.4 36.5-3 44.6-2.5 11.4.7 15.9-.3 20.8-4.8 7.9-7.3 8-22 .2-29.8-8.3-8.4-20.2-8.6-83.1-1.4zM1239.5 4354.5c-63.8 8.3-235.2 35.4-239 37.9-3.1 2-6.4 8.8-6.5 13 0 5.3 3.7 11.3 8.4 13.5 2.3 1.2 5.1 2.1 6.2 2.1 1.1 0 20.4-2.9 43-6.5 91.7-14.7 161.2-25.1 202.6-30.5 14.8-1.9 22.6-3.3 24.3-4.4 9.4-6.2 8.5-21.8-1.5-26.8-4.6-2.3-6.8-2.2-37.5 1.7zM7009.5 4698c-79.1 4.4-151.6 9.1-217 14-83.1 6.2-159.2 9.4-277 11.5-162.5 2.9-186.1 3.9-433 18.5-284.4 16.8-334.9 18.8-529 21-160.6 1.7-187.7 2.1-258.5 3-297.3 4.2-458.5 7.7-526.5 11.5-14.8.8-43.9 2.4-64.5 3.5-81.3 4.5-139.9 8-148.5 9.1-4.9.6-12.5 2.2-16.8 3.7-6.6 2.1-8.3 3.1-10.2 6.1-3.6 5.5-4.8 11.9-4.3 23.3.3 8.7.8 11.1 3 15.4 3 5.7 4.1 6.3 16.2 9.4 11.5 2.9 13.2 2.7 17.5-1.9l3.6-3.8 37.5-.6c20.6-.4 50.8-.9 67-1.2l29.5-.4-22.5 1.9c-12.4 1.1-41.8 3.6-65.5 5.5-50.3 4.2-49.1 3.9-56.2 14.5-4.3 6.3-9.3 19.7-9.3 24.5v2.4l-13.7.3-13.8.3-1.4 3c-1.9 3.9-1.9 15.1 0 19l1.4 3 13 .6c7.2.4 13.1.7 13.3.8.1 0 .2 1.4.2 3 0 10.4 8.2 32 14.4 38 6.6 6.4 7.3 6.5 40.4 3.7 16.3-1.4 44.3-3.7 62.2-5.1 17.9-1.4 40.8-3.2 51-4 10.2-.8 48.7-2.6 85.5-4 36.9-1.3 72.2-2.7 78.5-3 6.3-.3 50-1.3 97-2.2 72.6-1.5 123.1-1.7 334-1.3 509.1 1 776.5.6 861.5-1.3 226.5-5 294.2-8.7 455.5-25.2 85.9-8.8 116.1-11.1 204.5-16 149.4-8.2 169.6-10.7 286.8-34.9 57.7-12 75-15.2 98.2-18.6 27.2-3.9 41.8-7 44.2-9.2 5.3-5 6.5-19.8 2.3-28.3l-2.5-5-22.5.3c-12.4.1-37.6.9-56 1.7-66.5 2.9-118.5 3.7-170 2.5-53.6-1.2-88.9-2.6-89.8-3.4-.3-.3.7-.6 2.1-.6 1.4 0 23.2-2.9 48.4-6.5 56.2-7.9 56.3-7.9 90.8-11 50.5-4.6 65.1-6.8 90-13.5 12.4-3.3 14.5-5 16.5-12.9.7-2.5 1.4-5.3 1.6-6.1.2-.8 1.8-2.3 3.4-3.2 1.9-1.1 4-3.7 5.3-6.5 1.9-4.1 2.2-6.5 2.2-17.3 0-11-.3-13.1-2.3-17.7-4-8.8-3.7-8.7-26.1-9.5-34.3-1.2-125-1.7-141.6-.8zM3224.5 4873.9c-7.7 3.6-11.5 9.5-11.5 18.1v4.8l-4.7 1.8c-13.4 4.8-30.7 12.5-37.8 16.7-20 11.9-36.5 31.1-42.6 49.5-5 15-.2 31 13.2 44.5 7.5 7.5 14.1 11.1 28.1 15.1 12.9 3.7 24.3 5 39.8 4.3 28.4-1.2 50.6-9.9 68.3-26.6 23.9-22.6 31-55.2 18.6-86-10-25-27.5-38.7-54.9-43.1-9-1.4-11.9-1.2-16.5.9zm24.8 45.2c7.3 6 13.5 21.6 12.3 31.2-1.3 11.8-12.1 25.6-24.6 31.9-14.8 7.5-36.8 9.8-54.1 5.7-9.2-2.1-13.9-4.6-17.2-9.1l-2-2.6 3.9-6.4c8.9-14.9 22.9-24.5 50.4-34.8 18.7-7 23.2-9.9 24.5-15.9.8-3.9 2.1-3.9 6.8 0zM2605.8 4910.3c-9.8 2.8-13.3 7.8-12.6 18.1l.4 6.2-7.7 1.2c-39.6 6.3-70 40.9-67.5 76.7 2.2 31.1 21.8 54.8 55.1 66.8 14.3 5.1 22.3 6.2 44.5 6.1 28.2 0 44.6-3.1 61.2-11.5 19.6-9.9 29-32.4 24.4-58.9-4.4-25.1-15-46.2-36.8-73.3-14.3-17.8-23.3-25.5-34.7-29.8-7-2.6-19.8-3.4-26.3-1.6zm-.7 51.7c3.5 1.1 8.9 3.5 11.9 5.5 6.3 4.1 10.8 4.5 15.8 1.5 1.8-1.1 3.8-3.1 4.4-4.5.6-1.4 1.4-2.5 1.7-2.5 1 0 12.5 14.9 17.3 22.5 6.8 10.5 10.5 18.5 13.4 28.6 3.2 11.1 3.1 23.1-.2 27.7-4.6 6.3-22 12.3-41.7 14.3-42.4 4.3-75.9-12.4-81.7-40.8-1.7-8-.6-14.6 3.6-23.2 7.1-14.3 22.4-26.1 38.4-29.5 8.8-1.9 9.8-1.9 17.1.4zM1976 4959c-16.2 4.6-36.5 29.4-45.8 56-5.8 16.7-6.4 29.1-2.2 45.5 3.6 14.2 14.7 31.6 26.3 41.3 6.6 5.6 20.8 12.4 31.7 15.2 12.2 3.1 33.3 3.8 46.9 1.6 24.3-4.1 47.1-16.1 57.6-30.4 5.3-7.1 9.3-18.6 10.7-30.1 1-8.5.9-11.1-.5-18.4-3.4-17.4-12.6-34.3-26.4-48.8-14.9-15.6-33.2-27.7-47.5-31.3-6.1-1.6-45.8-2-50.8-.6zm45 31.2c14 4.3 38 25.5 45.7 40.4 6 11.5 7.6 18.4 6.3 27.1-.6 3.7-2 8.7-3.1 11-2.8 5.9-10.2 12.2-20.1 17.2-18.2 9.1-39.8 11.6-59.2 6.7-11.9-3.1-17.9-6.3-25.2-13.5-11.3-11.1-17.1-23.3-18.1-37.6-.4-6.7 0-9.5 2.1-16.8 1.5-4.8 4-11.6 5.7-15 3.4-6.6 10.2-17.2 11.8-18.2.5-.3 2.8.4 5.1 1.6 3.3 1.7 5.2 2 9.1 1.6 4.1-.5 4.9-.3 4.9 1 0 3.3 4.1 6.3 8.5 6.3 5.5 0 9-2.8 10-7.7 1.1-5.8 2.1-6.6 8-5.9 2.7.4 6.6 1.2 8.5 1.8zM2951 4966.1c-13.6 1-32.3 4.6-87.3 16.8-51.4 11.3-52.1 11.6-57.1 21.4-3.3 6.5-3.9 14.4-1.7 21.1 1.8 5.1 7.6 11.5 12.6 13.7 7.4 3.4 13 2.6 65.1-9 72.8-16.3 80.3-17.5 96.7-16.5 7.6.5 8.6.4 13.7-2.3 7.9-4 11.3-9.3 11.8-18.3.5-8.3-.8-12.4-5.4-17.8-4.5-5.3-11.8-8.1-24.8-9.2-5.6-.5-10.8-.9-11.6-.8-.8 0-6.2.4-12 .9zM762.3 4969.5c-17.7 4.9-54.9 26.5-59.7 34.6-2.4 4.1-2.1 11.9.7 15.9 1.2 1.8 3.1 3.8 4.2 4.4 1.1.6 2.2 1.2 2.4 1.3.2.2-.8 3-2.3 6.3-6.2 13.9-5.5 34.2 1.8 49.6 8.2 17.2 20.8 32 31.9 37.3 17.7 8.4 34.1 7.7 55.5-2.4 21.5-10.2 36.5-25.6 44-45.3 2.4-6.1 2.6-8 2.7-21.7 0-17.2-1.2-23.1-7.5-36.2-5.3-11.3-11.1-19.6-19.1-27.5-5.4-5.3-9-7.8-17.6-12-10.7-5.2-10.9-5.3-21.3-5.5-6.9-.2-12.3.2-15.7 1.2zm23.4 31.6c7.4 3.7 17.2 14 22 23.4 4.8 9.5 6.7 16.6 6.7 25.6 0 14.7-12 30.2-30.7 39.4-12.6 6.3-20 7.1-28.1 3.1-4.4-2.2-6.7-4.3-11.4-10.6-9.3-12.2-11.7-17.9-11.7-27.5 0-13.5 5.4-21.2 22.2-32.2 6.2-4 12.1-8.6 13-10 1-1.5 1.8-4.9 1.9-7.7.2-3.8.6-5.2 2.1-5.8 2.8-1.2 8.7-.2 14 2.3zM1292.7 4970c-2.1.6-5 1.6-6.5 2.4-1.5.7-5 1.6-7.9 1.9-11.5 1.3-26.3 9.7-39.6 22.6-15 14.6-21.6 27.7-22.5 45.2-.4 8-.1 10.9 1.7 16.7 5.9 19.6 24.8 35.5 50.1 42.4 7.6 2.1 10.6 2.3 29.5 2.2 23.3 0 33-1.5 50.2-7.5 18.3-6.4 28.2-13.7 33.3-24.3 11-23.1 2-46.1-28.9-74.3-21.1-19.2-35.2-27.3-48.6-27.9-3.8-.2-8.7.1-10.8.6zm18.8 32.9c9.6 5.9 27.9 21.7 35.3 30.4 2.9 3.4 6.7 9 8.3 12.3 2.8 5.6 2.9 6.5 2 10.2-.7 2.4-2.4 5.1-4.4 6.8-11.7 9.9-42.6 17.4-66.1 16.1-21.8-1.2-39.4-10.4-46.2-24.3-2.4-4.8-2.6-6.3-2.2-13.3.6-10.4 4-17.1 13.6-27.2l7.2-7.6 3.9 3.8c3.6 3.7 4.2 3.9 9.9 3.9 5.8 0 6.2-.2 12.4-5.3 8.4-7.2 13.8-10.7 16.3-10.7 1.2 0 5.7 2.2 10 4.9zM2320.5 5009.5c-6 1.3-17.5 4.3-25.5 6.5-14.1 4-75.8 24.3-83.2 27.4-5.1 2.2-10.5 7.1-13.1 12-3.1 5.8-3 17.4 0 23.2 2.8 5.3 9.1 10.7 14.2 12.2 8.6 2.6 12.6 1.8 46.4-9.9 17.7-6.1 45.2-15.6 61.1-21 27.7-9.5 30.8-10.8 34.8-15.4 5.7-6.5 6.4-20 1.5-27.4-6.6-10-16.3-12-36.2-7.6zM1716 5017.7c-15.6 2-37.9 5.8-69.4 11.9-15.4 3-50.2 9.7-77.3 14.9-27.1 5.2-50.5 10.1-52.1 10.9-6.8 3.5-10.9 12.1-9.7 20.2 1.1 7.8 7.7 14.6 15.4 16 4.5.9.6 1.6 164.1-29.7 8.5-1.7 22.5-4.1 30.9-5.4 17.1-2.7 20.7-4.4 24.3-11.6 4.2-8.2 1.2-20.6-6-25.1-5.1-3.2-8.8-3.5-20.2-2.1zM1019.2 5040.1c-40.9 6.5-75.1 12.8-78.2 14.4-6.6 3.4-10.5 14.3-8 21.9 1.4 4.5 5.3 9.2 9.1 11.1 4.7 2.5 12.3 1.7 49-4.9 19.5-3.5 41.6-7.4 49.1-8.7 14.9-2.4 18.7-4 21.8-9.1 6.4-10.5 1.5-24.2-9.7-27.6-5.3-1.6-4.9-1.6-33.1 2.9zM7292.4 5221.4c-6.1 2.7-11.1 11.9-13.9 25-2.9 14.1-1.2 30.2 4.4 42.2 3.1 6.6 22.1 39.2 43.4 74.2l12.9 21.3-3.3 6.2c-1.8 3.4-7.3 13.6-12.2 22.7-12.6 23.5-28.2 55.4-30.6 62.6-6.4 19.4-4.6 45.2 4.3 59.2 6.7 10.7 19.1 11.8 25 2.3 1.3-2 6.6-11.7 11.8-21.6 12.8-24.1 41.5-74.9 42.5-75.2.4-.1 3.5 3.7 6.8 8.4 16.2 23.3 39.4 49.6 47.6 53.9 3.9 2 8.7 1.4 12.9-1.6 8.6-6.1 14.4-32.2 11.1-49.6-2-10.4-5-16.2-12.5-24.2-9-9.7-17.4-20-26.1-32.2-3.7-5.2-7.1-10-7.6-10.6-.5-.6 4.7-10.8 12.7-25 7.5-13.1 14.6-26.6 15.9-30 8.7-22.7 4-57.4-9.4-68.7-5.4-4.5-12.9-4.5-18.8.1-1.2.9-10.5 16.5-20.7 34.5l-18.4 32.8-10.4-16.7c-5.6-9.1-19.7-32.4-31.3-51.7-11.5-19.3-22.1-35.9-23.5-36.8-3.5-2.5-8.9-3.1-12.6-1.5zM5498.2 5279.1c-7.4 2.2-15.1 14-19.4 29.6-1.7 6.4-2.1 10.7-2.2 24.3-.1 26.6 1.6 31 27.4 72 9.5 15.1 17.9 28.4 18.6 29.5 1.3 2 .9 2.5-8.4 8.8-21 14.3-36.8 29-41.7 39.1-11 22.5-4.5 61.3 10.8 64.1 5.6 1.1 8.3-.1 14.5-6.1 7.6-7.4 62-44 64.3-43.2.4.2 6.7 9.1 14 19.8 16.6 24.5 29.5 42.2 41.8 57.3 5.3 6.5 11.1 13.7 12.9 16 6.9 8.6 16.8 11.3 23.8 6.5 9.9-6.8 16.4-25.8 16.4-48.1 0-18.4-3.1-31-10.1-40.8-8.9-12.5-33.9-49.8-33.9-50.6 0-.4 13.8-8.7 30.8-18.4 34.5-19.7 35-20.2 39.4-34.3 3.3-10.3 3.2-29 0-39.6-2.8-9-7.4-16.5-11.3-18.5-6.1-3.2-8-2.4-39.2 15.4-16.3 9.3-36.1 20.9-44.2 25.7-8 4.8-14.7 8.5-14.9 8.3-.1-.2-13.2-20.9-29-45.9-44.9-71-41.7-66.2-46.1-68.7-5-2.7-10-3.5-14.3-2.2zM6481.3 5289.3c-11.2 6.2-16.7 36.4-10.3 57 2.1 6.8 5.7 11.8 37.8 52.6 10.1 12.8 18.2 23.4 18 23.6-.2.1-6.1 3.9-13.3 8.5-16.2 10.3-28.7 20-31.3 24.2-6.9 11.3-7.4 34.3-1 47.3 5.5 11 10.1 12 21.7 4.6 6.8-4.3 52.6-30.7 60-34.5l3-1.6 12.4 15.3c25.6 31.3 30.7 37.2 34.5 39 7.4 3.5 14 .4 18.9-9 4.5-8.5 6.3-17.2 6.3-29.9 0-19-3-28-12.8-39.2-3-3.4-5.2-6.6-4.8-7 .4-.4 28.3-16.3 61.9-35.4 66.8-37.8 64.3-36.1 68.3-47.8 3-8.6 2.7-29.1-.5-38.3-3.1-9.1-8.3-14.7-13.5-14.7-2 0-5.1.7-6.9 1.6-6.4 3.3-95.9 54-123.5 70-15.5 9-28.6 16.4-29 16.3-.4 0-2.9-2.8-5.7-6.1-2.7-3.4-13.7-16.7-24.3-29.7-10.6-13-26.7-33.1-35.8-44.7-9-11.6-17.5-21.6-18.9-22.2-3.3-1.5-8.4-1.5-11.2.1zM4604.9 5306.1c-4.7 2.8-9.2 9.7-12.5 19.4-4.9 14.5-4.5 39.1.8 53.3 1.2 3.3 15.1 25.1 33.8 53.2l31.7 47.6-5.6 6c-21.5 22.9-53.4 61.3-56.7 68.3-5.8 12.2-3.1 33.5 4.8 38 4.5 2.6 7 .8 19.1-13.1 10.2-11.9 23.4-26.2 51.9-56.8 7-7.4 9.1-9.2 9.8-8 1.8 3.2 37 54.1 44.6 64.5 4.5 6.1 9.5 11.8 11.4 12.9 4.8 2.9 11.1 2.5 15.4-.7 4.4-3.4 10.1-14.8 12.1-24.2 2-9.3 1.9-26.8-.1-35.8-2.2-9.9-4.8-14.7-22.7-42.2l-15.7-23.9 3.8-4.1c2.1-2.2 18.9-19.5 37.4-38.5l33.5-34.6 1.8-6.7c2.5-9.2 1.7-22.3-1.7-29.8-2.8-6.2-8.1-10-11.6-8.3-1.1.5-17 16.4-35.3 35.4-18.4 19-37.2 38.5-42 43.4l-8.6 8.8-40.6-61.1c-38.1-57.3-41-61.3-45-63.1-5.4-2.5-9.3-2.5-13.8.1zM7113 5352.1c-92.1 5.8-226.7 17.2-231.8 19.6-4.3 2.1-9.7 10-12.3 18.3-2.9 9-3.7 30.5-1.5 40.8 2.7 12.7 9.3 24 15.4 26.3 3 1.1 181.9-13.6 257.2-21.1 16.2-1.7 34.4-3 40.5-3 12.5 0 16-1.2 20.7-7 7.7-9.7 10.7-31.4 6.7-49.6-1.7-7.4-7.8-18.5-11.4-20.6-6.1-3.5-19.2-4.8-45.4-4.7-13.5.1-30.7.6-38.1 1zM6252.5 5389.6c-11.9 1.2-32.1 3.9-48 6.5-46.5 7.6-246.3 45.7-249.2 47.5-3.5 2.2-7.2 7.7-9.5 14-2.6 7.4-3.6 25.7-1.9 35.3 1.7 9.3 7.5 20 12.2 22.6l3.7 1.9 27.8-5.3c106.2-20.1 214-38.1 261.8-43.6 7.6-.9 15.1-2.2 16.7-3.1 3.5-1.7 7.2-7.1 10.1-14.5 2.9-7.4 3.7-29.3 1.4-39.2-1.9-8.2-5.4-15.2-9.4-19.1-3.2-3-7.4-3.8-15.7-3zM4962 5419.1c-16.2 6.5-23.9 46.2-14.4 74.8 2.9 9 8 16.8 12.6 19.6 3.2 2 5.5 2 105.3 2.3 61.8.3 116.8 0 139.5-.7 35.6-1.1 37.7-1.3 41.9-3.4 5.3-2.7 10-10.4 12.7-20.7 2.4-8.9 2.4-28.2.1-36.9-2.4-8.8-8.1-19.3-11.7-21.4-9.1-5.4-68.1-11.1-143.5-13.7-37.5-1.3-139.1-1.2-142.5.1zM2106 5611.6c-7.4.2-67.9.8-134.5 1.4l-121 1.1-193.5 9.4c-106.4 5.2-198 9.8-203.5 10.3-7.5.6-39.1-.5-125-4.4-63.2-2.9-135.7-5.8-161-6.3-25.3-.6-53.7-1.3-63-1.5-18.1-.4-21.2.1-24.9 4.2-2.6 3-3.2 10.1-1.2 14 3.2 6.3 3.2 6.3 53.5 7.3 53.2 1 130.6 3.8 129.7 4.6-.2.2-58.6 6-129.7 12.8-71.2 6.9-139.1 13.5-150.9 14.9-20.5 2.2-23.3 2.3-60 1.6-23-.4-39.5-.3-41 .2-4 1.5-6 3.9-6.6 8-.4 2.1-1.2 3.8-1.8 3.8-5.8 0-33.8 4.3-36.3 5.6-8.7 4.5-8 18.4 1.1 22.5 4.1 1.7 4.3 1.7 79.1-7.7l75-9.3 100 1.4c108.4 1.6 227.1 3.1 327.8 4.1 35.1.4 63.6.8 63.4 1-.2.2-84.7 4.4-187.8 9.4-207 9.9-197.3 9.4-294.9 15.1-78.8 4.6-76 4.2-80 12.3-3.8 8-.8 17.6 6.7 21.1 3.5 1.7 5.4 1.7 42.3-.5 21.2-1.2 39.5-2.1 40.5-1.8 1.1.2-10.4 1.1-25.5 2.1-31.2 2.1-56.4 4.4-92.5 8.7-27.2 3.3-29.2 3.9-30.9 9.9-1.1 4 1.3 9.7 4.6 11 2.9 1.1.5 1.4-39.7 4.6-46.7 3.8-85.6 8.4-87.7 10.2-2.5 2.2-2.2 5.3.7 9.3 2.4 3.3 2.5 3.5.6 4.2-2.8 1-4.3 4.4-3.6 7.7 1 4.5 11.8 8.2 16.6 5.7 2.7-1.4-9.2-1.2 232.9-4.6 76.7-1.1 168.8-2.9 204.5-4.1 63.6-2.1 69.5-2.1 273-1 114.4.6 216.8 1.2 227.5 1.2l19.5.1-65 5.9-65 5.9-271 1c-149 .5-273 1.3-275.5 1.7-4.3.8-4.5.9-4.5 4.3 0 2.8.4 3.5 2.5 4 1.4.4 94.5.5 207 .2 112.5-.2 204.2-.2 203.9.2-.4.4-63.6 6.3-140.5 13.1-251.2 22.4-325.2 29.3-328.1 30.7-9.6 4.6-9.6 20.1 0 25.1 3.6 1.9 3.9 1.9 54.9-2.8 203.6-18.4 610-54.3 712.8-63l65.5-5.5 93-2.5c76.4-2.1 117.2-3.8 228.5-9.5 74.5-3.9 145.9-7.7 158.5-8.5 12.7-.8 50.2-2 83.5-2.5 33.3-.6 107.8-2.2 165.5-3.5 232.5-5.4 235.8-5.5 247.5-1.6 3.6 1.1 8 2.1 9.8 2.1 7.3 0 12.2-5.2 12.2-13 0-5.7-2.2-9.4-7.1-11.8-2.6-1.3-3.7-2.3-2.8-2.6.8-.2 20.3-1.6 43.4-3 103.1-6.4 138.3-8.5 156.7-9.6 29.6-1.6 46.5-4.8 50.6-9.5 3.1-3.7 3-10.4-.3-16.2-3-4.9-6.8-7.3-12.1-7.3-3 0-4.4.7-7.4 3.9-2 2.1-4.6 4.1-5.6 4.4-3.7 1.2-19.1 2.7-42.3 4.2-12.9.9-55 4-93.5 7-299.9 23.4-438 33.2-476.6 33.9-16.8.4-36.3.9-43.5 1.2-7.1.4-12.7.3-12.4 0 1.5-1.5 408.3-33 518.9-40.1 47.1-3 61.5-6.4 67.9-16.1 1.7-2.6 3.5-6 4.1-7.8.6-1.7 2.5-4 4.3-5.1 1.7-1.1 4.2-3.6 5.5-5.5 2-3 2.3-4.4 2-9.7-.4-6.7-2.1-10-7.2-13.7-2.5-1.9-4.4-2.1-20.4-2.4-9.7-.2-18.1-.7-18.6-1.3-.6-.6-.6-.9.1-.9.6 0 2.5-1.2 4.2-2.6 3.1-2.6 3.3-2.6 9.5-1.4 5.2 1 6.9.9 9.9-.3 1.9-.9 4-2.4 4.6-3.5.8-1.5 2.5-2 9-2.5 9.3-.7 13.4-2.5 16.1-7 2.2-3.6 2.7-11.6.9-14.9-1.1-2-1-2 9.7-1.4 23.3 1.5 38.8 4.3 41.2 7.4.6.8 1.2 2.9 1.2 4.5 0 8.1 6.2 13.3 14.9 12.5 5.5-.5 8.3-2.4 10.8-7.2 2.3-4.4.9-15.2-3.1-22.9-6.4-12.6-19.8-17.3-56.2-19.7-9.3-.6-27.7-1.9-40.9-3-57.4-4.6-117.5-8.4-188.5-12-32.7-1.6-62.6-3.2-66.5-3.5-5.8-.5-192.7-8.1-245-10.1-26.7-.9-244.9-5.4-283-5.8-20.3-.2-43.1-.2-50.5 0zm197.5 28.4c174.2 3.8 388.7 12.1 512 20 17.1 1.1 42.5 2.7 56.5 3.5 44.9 2.8 39.4 3.8-22 4-30.4.1-30.5.1-33.6-2.3-1.8-1.2-4.6-2.7-6.4-3.2-5-1.4-83.5.6-173.5 4.4-248.3 10.7-243.8 10.6-335.1 10.6h-83.9l-131.5-5.4c-119.8-5-143.3-6.3-263.5-14.3-81.9-5.5-130.4-9.1-128-9.5 2.2-.4 38.4-2.3 80.5-4.3 70.5-3.3 85.7-3.7 193.5-4.9 171.7-1.9 185.3-1.9 335 1.4zm-783.5 23.5c42.1 2 359 23.3 370.5 24.9 1.7.3-66.3.2-151 0-245.9-.7-544.3-3.1-539-4.2 1.1-.3 56.5-5.8 123-12.3 100.9-9.8 122.9-11.7 132.5-11.3 6.3.3 35.1 1.6 64 2.9zm1103.6 50.7c2.1 1.2 3.3 2.3 2.8 2.5-.5.1-40 1.6-87.9 3.3-75.8 2.7-229 8.8-336 13.5-193.8 8.5-268.9 11.8-302 13.5-38.2 1.9-64.4 2.5-63.3 1.5.3-.4 38.3-3.5 84.4-7.1 97.7-7.5 273.7-18.1 323.4-19.5 19-.5 98.6-2.5 177-4.5 78.4-1.9 151.1-3.9 161.5-4.3 34.2-1.4 35.9-1.4 40.1 1.1zm-820.8 17.3c-.3.3-31.5 3-69.4 6-37.9 3-78.8 6.3-90.9 7.4-19.7 1.8-32.3 2-122.5 2.3-55.3.2-98 .2-95 0 3-.1 34.1-1.8 69-3.7 77.5-4.2 167.3-8.1 244-10.4 31.6-1 59.3-1.9 61.4-2 2.2 0 3.7.1 3.4.4zm-441.8 39.1c-15.2 2.1-129.5 11.5-187.5 15.4l-73.9 5-2.3-2.2-2.4-2.2-30.2 1.7c-83.4 4.9-158.2 9.9-159.8 10.7-1 .6-2.1 1.9-2.4 3.1-.6 1.9-.8 1.8-2.3-1.3-1.5-2.8-2.3-3.4-6.2-3.8-4.5-.5 3.5-1.6 40.8-5.5 7.5-.8 74.9-5.5 149.7-10.5 123.2-8.2 140.2-9.1 181-9.9 46-.8 100-1.1 95.5-.5zm597.5 2.4c28.1.5 86.4 1.3 129.8 1.6 43.3.4 78.5.9 78.4 1.1-1.1 1.1-379.1 18.1-626.2 28.3-249.3 10.2-251.6 10.3-338.6 9.1-42.2-.6-82.6-1.1-89.9-1.1-7.4 0-13.1-.2-12.8-.5.3-.3 43-3.5 94.9-7 51.9-3.6 107-7.4 122.4-8.5 50.4-3.5 319.8-18 399.8-21.5 85.1-3.7 109.9-3.9 242.2-1.5zm156.3 23.5c-.2.3-42.7 4.1-94.4 8.4l-93.9 7.9-117.3.5c-64.6.3-117.2.4-117 .2.4-.5 3.4-.6 193.8-8 77.8-3.1 159.7-6.4 182-7.4 50.9-2.3 47.4-2.2 46.8-1.6zM7291.5 5789.6c-4.8 2.5-8.1 6.2-11.3 12.8-4.9 9.9-6.3 16.8-6.9 32.6-.5 15.5.5 23.2 4.6 34 1.2 3.1 15.7 26 32.9 52l30.9 46.5-11.7 12.5c-22.3 23.7-37 41.9-42.3 52.6-4.8 9.6-6.1 16.6-6.1 32.9 0 13.5.3 15.8 2.7 23.2 4.6 13.9 11.4 21.3 19.5 21.3 5.2 0 8.3-2.2 17.5-12.7 4.7-5.4 21.1-22.3 36.5-37.6l27.9-27.9 14.3 19.9c31.7 43.8 53.2 71.7 66.9 87.1 7.4 8.3 11.7 10.2 18.2 8.3 12.5-3.8 21.1-30.4 18-55.9-1.8-14.7-4.1-19.5-19.3-40.7-7.4-10.5-21.3-30.2-30.7-44l-17.2-25 27.1-27c14.9-14.8 28-28.4 29.1-30 4.4-6.8 7.1-18.3 7.7-32.3.8-22.6-3-37.9-12-47.7-5.5-6-10-8.1-15.6-7-3.2.6-9 5.9-42.4 39.3-24.3 24.1-39.1 38.3-39.7 37.7-.5-.6-18.7-27.8-40.4-60.5s-40.3-60.3-41.4-61.2c-2.5-2.2-8.6-4.8-11.5-4.8-1.3 0-3.6.7-5.3 1.6zM6620.2 5851.7c-6.2 3-12 13.3-15.3 27.1-1.9 7.6-2.1 10.7-1.6 24.2.8 24.5 2.4 28.1 24.5 56.5 8.5 11 16.2 20.7 16.9 21.6 1.3 1.5.7 2.1-5.3 5.4-11.9 6.7-30.8 19.8-36.1 25.1-4.3 4.2-5.5 6.4-7.4 12.3-2.9 9.7-2.4 27.5 1 36.4 3.2 8.1 7.7 12.7 12.7 12.7 2.2 0 5.4-.9 7.4-2.1 2.9-1.8 52.3-27.9 65.6-34.7l4.2-2.1 21.4 25.7c11.8 14.1 32.4 38.3 45.7 53.6 13.3 15.4 24.8 28.7 25.4 29.6 2.1 3 8.1 6 12 6 7 0 11.7-3.9 16.6-13.8 8.3-16.5 8.4-48.6.3-64.7-3-6-19.4-28.1-39.5-53.3l-14.7-18.4 13.8-6.5c7.5-3.6 19.6-9.2 26.7-12.4 14.7-6.5 18.5-9.6 21.4-17.4 6.9-18.3 3.6-44-6.8-53.9-4.5-4.3-8.3-3.8-22.6 2.7-21.9 9.9-59.5 27.8-67.1 31.9l-7.4 4-2.7-3.3c-4.5-5.2-48.9-61.4-60.3-76.2-7.8-10-11.6-14.1-14.6-15.7-4.8-2.4-9.7-2.5-14.2-.3zM5734.5 5905.9c-7.9 3.6-14.2 13.8-18.1 29.1-1.5 5.9-1.9 11.1-1.9 24.5 0 15.5.2 17.9 2.8 27 1.5 5.5 4.2 12.3 6 15.2 2.1 3.3 14.4 15.6 34.7 34.7 17.3 16.3 31.6 29.9 31.7 30.4.2.4-7.3 4-16.5 8.1-9.2 4-25.3 11.5-35.7 16.6-21.1 10.2-23.7 12.3-27.6 22.2-2.1 5.1-2.3 7.5-2.3 20.3 0 12.9.2 15.2 2.3 20.5 1.3 3.3 4.1 7.7 6.1 9.7 4.9 4.9 8.7 5 17.2.4 7.8-4.2 24.4-11.4 73.2-31.7l37.9-15.7 18.6 17c33 30.2 57.4 49.9 64.1 51.9 12 3.6 22.8-7.8 28.2-29.7 2.8-11.4 3-33.8.4-45.4-2.2-10.1-7.5-20.9-13.1-26.9l-4.7-5 3.9-1.6c2.1-.9 21.1-8.6 42.3-17.2 32.9-13.3 39-16.1 42.1-19.2 12.3-12.5 12.4-48.7.2-62.2-2.1-2.3-4.7-4.1-6.7-4.4-2.6-.5-15 4.2-70.5 27l-67.4 27.6-4.1-3.9c-2.3-2.1-19.8-18.4-39.1-36.2-19.2-17.8-47-43.7-61.8-57.4-15.3-14.4-28.1-25.6-30-26.3-4.5-1.7-7.6-1.5-12.2.6zM6309.5 5915.4c-4.5 1.9-10 8.6-12.4 15-1.1 3.1-2.1 6.3-2.1 7 0 2.1-1.5 2.9-17 8.9-30.7 12-51.3 27.5-59.8 45-7.5 15.5-10 36.5-6.4 53.7 5 24.3 16.3 39.6 35.7 48.5 12.2 5.7 19.1 7 36.5 7 14.4-.1 16.4-.3 27.4-3.3 16.1-4.5 20.6-7 30.3-16.7 6.6-6.7 9-9.9 12.7-17.6 8.1-16.9 11.4-36.8 9.5-58-1.8-21.1-6.5-37.4-16.6-57.8-5.7-11.7-7.7-14.6-14.5-21.7-10.7-11.1-15.8-13.3-23.3-10zm6 96.6c2.3 2.5 1.1 4.1-5.4 6.9-6 2.5-21.6 5.3-27.4 4.9l-4.2-.4 4-1.8c4-1.9 29.5-11.5 30.6-11.6.3 0 1.4.9 2.4 2zM7050.1 5938.6c-17 8.6-28.8 19.7-42.9 40.2-8.3 12.1-12 28-10.7 46.1 1.4 19.6 6.7 33.1 17.6 44.6 7.5 7.9 15.1 12.5 24.4 15 8.8 2.2 13.9 1.9 24.9-1.9 23.7-8.2 38.1-24.6 45.4-51.6 3.5-13.1 3.6-35.3.3-47.5-4.1-15.4-17.6-38.2-24-40.7-1.4-.5-4.3-.7-6.4-.5-3.4.5-3.9.2-5.3-2.4-1.7-3.4-6.9-6.9-10.1-6.9-1.2 0-7.2 2.5-13.2 5.6zm20.1 62.9l2.7 4.4-4.7 3c-8.5 5.4-14.2 7.5-20.9 7.6-3.4 0-6.5-.4-7-.9-1.3-1.3 8.8-9.7 17.4-14.3 4.3-2.4 8.3-4.3 8.8-4.2.6 0 2.2 1.9 3.7 4.4zM5463.2 5964.7c-5.9 6.2-7.7 12.6-7.7 27.3 0 15.7 1.9 22.6 7.6 28.3 2.1 2.2 3.9 4.3 3.9 4.6 0 .4-1.2 1.8-2.6 3.2-6.4 5.9-24.4 38.7-28.9 52.9-2.4 7.3-2.8 10.7-3.2 23.5-.6 17.7.7 25 6.4 35.7 5.8 11.1 17.5 19.6 31.2 22.8 7.2 1.7 21.8.8 30.6-1.8 21-6.3 44.7-24 56.3-42 8.9-13.8 13.4-36.8 11.2-57.5-1.5-14.8-4.4-24.8-11.4-39.2-9.1-18.9-19.5-31.1-35-41-12.7-8.1-39.3-18.9-49.9-20.2-4.5-.6-4.9-.4-8.5 3.4zm66.4 103.7c.8 2.3-3.5 6.8-14 14.7-11.4 8.7-21.7 13.6-30.7 14.7-7.5.9-15.8.6-17.1-.7-.9-.8 6.6-14.3 11.9-21.2 4.7-6.2 14.6-13.9 17.9-13.9 1.4 0 5.1 1.3 8.4 3 8.2 4.1 12.1 4 15.7-.5l2.8-3.6 2.3 2.8c1.2 1.6 2.5 3.6 2.8 4.7zM4683.3 5969.5c-8.9 3.8-13.7 24.9-9.7 42.4 1.5 6.7 6.4 16.1 8.3 16.1.6 0-1.5 3.7-4.5 8.2-12.1 18-23.4 44.5-26.9 63.3-4.7 24.7-1.4 56.6 7.7 73.7 4.2 8 13.2 17.2 19.5 20 14.1 6.3 36.8 2 55.6-10.6 42.7-28.4 65-83.4 55.1-135.9-2-10.5-5.4-19.9-12.2-33.2-4.6-9.2-6.9-12.3-13.6-19.1-6.4-6.4-9.9-9-16.6-12.3-16.7-8.1-55.1-15.9-62.7-12.6zm52.5 73.2c9.6 4.7 16 11.2 20.8 20.8 3.3 6.8 3.6 8 3.1 13.2-1.9 20.1-23.2 47-46.7 59.2-25 13-43.2 3.9-38.9-19.5 3.3-18.1 21.1-49 36.5-63.5 4.4-4.1 16.6-13.9 17.3-13.9.2 0 3.8 1.7 7.9 3.7zM4938.5 5975.7c-16.5 4-23.1 45.6-11 70 3.6 7.3 7.9 11.3 12.2 11.3 2.4 0 18.3 7.7 26 12.6 8 5.1 19.4 14.4 18.8 15.4-.3.5-5.4 4.3-11.4 8.4-20.1 13.9-35.6 27.9-39.7 35.8-7.5 14.6-7.4 41.3.1 57.1 4.4 9.3 10.8 14 16.7 12.2 1.3-.4 9.7-4.9 18.8-10 58.3-32.6 72.6-40.5 73.3-40.6 1.3 0 46.6 55 64.5 78.2 7.7 10.1 9.5 11.6 15.9 13.4 3.2.9 10.6-2.7 13.2-6.3 11.7-16.5 13.4-49.8 3.6-69.2-2.2-4.3-16-21.4-32.2-39.9-4-4.7-7-8.8-6.6-9.1.5-.4 10.5-6 22.3-12.5 24.5-13.3 29.2-17.2 32.9-27 3.6-9.4 5.1-18.1 5.1-29.3 0-13.5-2.1-23.8-7.1-33.9-4.8-9.9-8.8-13.3-15.8-13.3-5.2 0-6.7.8-60.6 30.9-34 19-36 20-37.6 18.4-37.1-40-55.1-55.6-74.1-64.6-6.7-3.2-23-8.9-24.6-8.6-.4.1-1.6.4-2.7.6zM2611.5 6445.1c-208.2.8-301.4 2.1-477 6.4-54.4 1.4-128.2 3.2-164 4-54.9 1.3-248.9 8.4-381 14-19.8.8-96.7 4.9-171 9-74.2 4.1-143.8 7.9-154.5 8.5-43.4 2.3-72.9 4.6-219 17-160.7 13.7-162.5 13.9-214.4 20-30.9 3.7-33.2 4.1-37.5 6.7-3.2 2-5.3 4.4-7.4 8.3-2.5 4.9-2.8 6.3-2.5 12.6.3 5.7.9 7.9 3.1 11.2 3.3 5 9.3 9.2 14.5 10.2 2.3.4 15.2-.7 32.7-2.6 59.5-6.8 77.7-8.4 355-31.9 9.9-.8 88-5.3 173.5-10s162.7-8.9 171.5-9.5c8.8-.5 57.6-2.6 108.5-4.5s127.2-4.9 169.5-6.5c42.4-1.7 146.1-4.5 230.5-6.4 84.4-1.9 162.1-3.8 172.5-4.1 46-1.4 305.7-3.5 440-3.5h147.1l135.9 4c74.8 2.2 147.7 4.6 162 5.5 14.3.8 50.8 2.9 81 4.5 142.9 7.9 230.9 14 243.9 17 10.4 2.4 19.7.7 25.7-4.7 6.3-5.7 8.4-10.5 8.4-19.3 0-11.3-4.6-18.5-14.5-22.9-16.8-7.4-100.5-13.8-313.5-24.1-70.8-3.4-71.3-3.4-179.5-6.1-44.3-1-96.9-2.4-117-2.9-20.1-.5-41.9-.9-48.5-.8-6.6.1-84.9.5-174 .9zM7236 6671.6c-72.2 6.1-132.6 12.6-136.9 14.8-6.6 3.5-12.9 14.7-15.5 27.8-2 9.6-2 29-.2 37.8 3.1 14.4 9.3 26 15.7 29.4l3.7 2 36.3-3.7c42.5-4.4 60-5.9 98.9-8.7 15.7-1.1 35.7-2.7 44.5-3.5 8.8-.8 23.3-1.9 32.2-2.5 8.9-.5 17.4-1.5 18.8-2 5.9-2.2 12.1-12.6 14.9-24.7 2.1-9.5 2.1-28.1 0-37.6-1.9-8.6-8.6-21.9-12.1-24.2-1.4-1-6.7-2.6-11.7-3.7-7.9-1.8-13.3-2.1-40.6-2.4-20.8-.1-37.1.2-48 1.2zM7406 6684.7c-4.4 2.3-9.5 10.5-11.2 18.2-1.6 7.4-1.6 24.2.1 31.1 1.9 7.9 6.6 16.3 10.3 18.5 2.9 1.7 4.8 1.8 25.7 1.1 27.9-.8 42.1-2 46-4 7.2-3.8 12.1-22.5 10-38.6-1.9-15.1-6.7-23.2-14.6-24.4-6.5-1-28-2.5-45.8-3.1-15.2-.5-17.4-.4-20.5 1.2zM6065 6692.1c-65.7 4.2-61.7 3.4-67.6 12.9-5 8.1-7.4 18.9-7.4 33 0 18.4 4.6 32.9 12.6 40l3.8 3.3 11-.6c22.6-1.2 138.7-8.8 156.6-10.2 10.2-.8 22.3-1.5 27-1.5 11.6 0 14.5-1.5 18.8-10 4.4-8.8 6.1-21.5 4.4-33.2-1.5-10.6-6.7-22-11-24.2-4.1-2.1-24.7-6.2-41.7-8.2-16.6-1.9-83.3-2.8-106.5-1.3zM6691.5 6693.8c-9.3 4.3-15.5 21-15.5 41.3 0 16.8 5.2 33.3 12.4 39.7 3.4 2.9 3.7 3 18.2 3.7 20.5 1 154.5-.1 172.9-1.4 34.3-2.6 72.4-7.2 78.1-9.6 6.9-2.8 11.2-12.6 12.1-27.1 1-16.2-3.2-31.1-10-35.3-2.4-1.5-7.6-2.5-21.2-4-43.9-5-75.5-6.8-134.5-7.6-22.3-.3-55.8-.7-74.5-1-31.8-.5-34.3-.4-38 1.3zM5786 6702.1c-39.3 1.6-78.5 5.5-96.9 9.5-18.4 4.1-38.3 12.1-46.8 18.7-11 8.7-17.3 37.7-12.9 59.6 2.5 12.3 6.2 20.7 11.6 26.3 4.4 4.5 4.9 4.8 9.9 4.8 4.3 0 6.5-.7 12.9-4.4 21.6-12.5 33.8-14.2 149.7-21.6 41.1-2.6 102-8.7 105.5-10.5 10.1-5.2 15.4-30 10.8-51-1.8-8.2-7.1-17.8-11-19.8-1.8-.9-11.2-3-20.8-4.7-43.7-7.4-67.2-8.8-112-6.9zM6343.3 6705.5c-7.2 3.1-11.8 15.5-11.8 32 0 14 2.7 23.5 8.3 29.4l3.7 3.9 44 .7c68.2 1.2 143.9-1.3 152.2-5 7-3.1 10.9-15.2 10.1-31.3-.4-8.4-1-10.9-3.6-16.6-2.4-5.1-3.8-6.9-6.4-8-7.6-3.4-83.1-6.5-160.8-6.5-25.6 0-33.2.3-35.7 1.4zM4679.6 6743.1c-30.7 1-31.8 1.2-37.4 9.1-12.9 18.1-12.2 57.7 1.4 75.5 5.1 6.7 4.4 6.6 46.3 5.4 46.1-1.4 74-2.7 97.6-4.6 9.9-.8 22.8-1.5 28.7-1.5 10.5 0 10.8-.1 14.1-3 4-3.5 8.3-12.5 9.8-20.7.6-3.2.9-11 .7-17.3-.8-20.4-6-30.7-17.6-35-9.5-3.6-25.1-6.9-37.2-8-13.2-1.1-66.9-1.1-106.4.1zM5389 6774.7c-48.4 2.6-91 6.2-94.8 7.9-2.5 1.1-4 2.9-6 7.2-2.5 5.3-2.7 6.7-2.7 18.7s.2 13.4 2.7 18.7c4.4 9.5 3.3 9.3 35.5 6.9 15.3-1.2 40.2-3 55.3-4.1 15.1-1.1 41.7-3.1 59-4.5 17.3-1.3 36.8-2.7 43.2-3.1 6.4-.4 12.7-1.2 13.9-1.8 1.3-.6 3.4-3.3 4.8-6.1 2.3-4.4 2.6-6.1 2.6-16 0-10-.3-11.5-2.7-16.6-1.7-3.4-3.8-6-5.3-6.7-1.9-.9-16-1.1-51.3-1-26.8.1-51.2.3-54.2.5zM4953.6 6778.1c-8 9.4-7.1 34.8 1.4 42.4 2.2 2 3.6 2 91.9 2 58.2 0 94-.4 102.1-1.2 11.8-1.1 12.5-1.2 14.7-3.9 5.1-6.4 5.7-23.2 1.2-31.5-2-3.7-3-4.4-6.4-5-10.1-1.8-135.4-5.9-181.2-5.9h-21.1l-2.6 3.1zM2344.5 7017.6c-25.3 3.6-33.5 5.8-69.6 18.9-51.7 18.8-89.2 34.9-142.7 61.5-33.4 16.6-62.9 32.6-203.7 110.8-104.6 58.1-139.5 75.5-186.5 93-35.3 13.1-53.3 17.7-74.7 19.1-12.2.8-26 .1-31.9-1.7-5.1-1.6-7.6-3.2-13.6-9-9.2-8.7-10.8-16.2-14.3-66.7-4.5-64.7-6.8-80.4-15.7-106.5-5.1-14.9-13.3-31.8-19.6-40-7.1-9.4-18.4-19.7-29.8-27.3-21.5-14.3-39.4-19.6-73.9-21.9-36.5-2.4-75.4 2.4-146 18.2-46.8 10.4-148.5 39.5-194 55.5-85.3 30-247.4 94.6-313.3 124.9-22.3 10.2-97.2 46.9-96.8 47.3.5.5-1.9 1.2 66.6-19.2 28.3-8.5 72.9-21.4 99-28.9 89.2-25.3 148-43.5 239.5-74.1 123.5-41.3 185.9-59.1 260.6-74.4 32.9-6.7 40.2-7.5 70.4-7.6 28.4 0 33.8.6 48.2 5.6 16.3 5.6 35.4 21.8 43.1 36.6 4.9 9.4 11.1 27.6 14.1 41.4 3.2 14.8 4.6 30 8.1 83.4 2.7 42 5.6 58.3 12.5 70.1 6.3 10.8 20 23.6 31 29.2 26.8 13.4 72.3 11.9 121.4-4 55.2-17.9 106.4-42.3 206.1-98 34.9-19.6 90.7-50.7 124-69.3 98.4-54.8 155.6-81.9 222.5-105.5 36-12.7 50.1-16.1 68-16.3 11.5-.2 12.2-.1 16.7 2.6 6.5 3.8 14.3 11.9 17.3 18.1 8.6 17.7 11.3 46.6 11.5 121.6 0 27.4.3 34.4 2 44.5 4.1 25.4 10 37.1 25.8 51.6 26.9 24.6 61.1 33.1 117.2 28.9 36.9-2.7 63.5-8.2 122.1-24.9 44.6-12.7 93.9-29.8 200.2-69.6 27.4-10.2 69.7-25.5 94-34.1 24.3-8.5 45.2-15.9 46.4-16.4 3.8-1.6 72.8-22.9 80.8-25 7.8-2 19-2.6 21.1-1.2 1.6.9 3.4 7.8 3.4 12.5 0 10.8-17.3 72.1-27 95.7-6.5 15.8-6.2 29.8 1 44.7 6.7 14.1 16.7 22.4 31.1 25.8 8.3 1.9 27.1 1.9 38.5 0 13.8-2.4 50.9-10.4 60.9-13.1 27.8-7.6 80.5-27.2 184.5-68.4 28.9-11.5 69.6-27.4 90.5-35.3 55.3-21.1 163.6-62 173.5-65.5 4.7-1.7 7.6-3.1 6.4-3.1-4.3-.2-106.7 19.8-153.9 29.9-18.4 4-77.8 18-95 22.5-37.7 9.8-128.4 37.4-172.5 52.5-37.8 13-46.8 15.5-79.5 22.8-28.1 6.3-36.7 7.8-38.4 6.8-.6-.4-.2-2.8.9-6.4 3.6-11.1 16.9-59.9 19.4-71.2 6-27 6.8-38.6 3.7-53.7-3.2-15.2-10.7-27.9-20-33.7-8.3-5.3-14.8-6.9-29.7-7.4-8.4-.2-16.8 0-20.7.7-9.2 1.6-73.1 20.9-121.7 36.8-22.8 7.4-76.1 25.7-118.5 40.5-122.3 42.9-155.1 53.6-211.5 68.7-55.3 14.8-82.1 18.8-119.5 17.9-28.7-.8-40-4.4-53.2-17.3-11-10.7-11.9-15.8-12.8-67.5-.3-21.2-1-46.4-1.6-56-1.6-29.6-7-56.1-14.9-73.6-9.1-20.2-27.4-36.5-50-44.7-4.3-1.5-8.6-2-20-2.2-8-.2-15.8-.1-17.5.1zM7260.5 7171.1c-67.6 1.8-160.8 5.3-193.5 7.4-39.9 2.6-104.1 7.4-134 10-33.8 3.1-35.1 3.5-41.1 12.7-7.8 12.2-10.3 22.9-10.2 44.3 0 12.1.4 16.5 2.2 23 4.2 15.6 11.5 27.1 18.5 29.5 2.5.8 10.3.5 33.2-1.5 31.4-2.6 114.6-8.7 144.4-10.4 45.4-2.7 135.7-4.3 210.5-3.8 72.7.6 85.5.9 156.3 4.3 48.2 2.2 52.2 2.2 61.5-.6 6.4-1.9 8.4-3 11.6-6.5 5.1-5.5 7.5-10.3 10.3-20.6 2-7.3 2.3-10.7 2.2-25.4 0-15.6-.2-17.7-2.8-26-7-23-19.8-31.8-50.1-34.5-32.9-2.9-144.4-3.9-219-1.9zM6618.8 7218.5c-9.2 5.2-12.5 34.3-5.4 48.4 3.7 7.5 4.4 7.8 34.7 12.7 38.1 6.2 67.3 11.8 83.6 16 18.7 4.9 18.9 4.9 21.9 2.9 9.9-6.4 11.2-37.3 2-46.9-6.7-7-53.2-20.3-104.8-30-24.3-4.6-28.6-5-32-3.1zM4574.3 7234.9c-3 1.4-7.8 8.1-10.5 15-2 5-2.2 7.4-2.3 21.6 0 14.4.2 16.6 2.4 22.5 1.3 3.5 3.5 8.1 4.8 10.2 4.8 7.2-6.8 6.6 153.8 7.8 201.9 1.5 736.9 3 743 2 4.2-.6 5.6-1.5 9.1-5.3 6.1-6.8 7.9-13.3 7.9-29.2 0-10.6-.4-14.3-2.2-20.1-3.6-11.3-5.5-13.5-14.8-16.6-18.3-6.1-48.3-6.6-424-7.3-168.8-.3-342.5-.7-386-1-50.3-.4-79.8-.2-81.2.4zM5632.9 7239.3c-8.3 5.6-13.1 26-9.9 42.8 1.4 7 6.7 18.5 9.5 20.3 2.5 1.6 32.9 7.2 73.9 13.5 23.3 3.7 26.1 3.9 29.1 2.6 8.5-3.5 14-22.3 11.5-39.5-1.2-8.6-5.8-19.2-9.2-21.3-2.6-1.7-12.8-4.1-38.2-9.3-22.8-4.6-59.4-11.4-61.6-11.4-.9 0-3.2 1-5.1 2.3zM6268.5 7237.7c-114.6 2.6-209.9 5.8-334.5 11.4-53 2.3-52.1 2.1-57.7 10.7-11 16.8-11.8 49.5-1.7 69.3 2.7 5.5 7.6 10.7 10.9 11.5 1.2.3 24.7-.4 52.1-1.5 53-2.2 110.2-4.4 163.4-6.1 17.9-.6 46-1.5 62.5-2 38.5-1.3 214.3-3.2 225.5-2.4 4.7.3 10.5 1.3 13 2.1 16.8 5.5 27.9-11 28-41.2 0-13-1.6-20-6.6-29.6-4.9-9.4-9.4-13.2-19.1-16.3-12.4-3.9-21.2-4.7-62.8-5.6-36.9-.9-46.9-.9-73-.3z"/></svg>