<svg xmlns="http://www.w3.org/2000/svg" viewBox="0 0 512 512"><path fill="#fff" d="M151.968 0c-34.306 0-62.215 27.909-62.215 62.215v387.57c0 34.306 27.909 62.215 62.215 62.215s62.215-27.909 62.215-62.215V62.215C214.183 27.909 186.274 0 151.968 0zm41.817 449.785c0 23.057-18.759 41.817-41.817 41.817-23.057 0-41.817-18.759-41.817-41.817V62.215c0-23.057 18.759-41.817 41.817-41.817 23.057 0 41.817 18.759 41.817 41.817v387.57zM360.032 0c-34.306 0-62.215 27.909-62.215 62.215v387.57c0 34.306 27.909 62.215 62.215 62.215s62.215-27.909 62.215-62.215V62.215C422.247 27.909 394.338 0 360.032 0zm41.817 449.785c0 23.057-18.759 41.817-41.817 41.817-23.057 0-41.817-18.759-41.817-41.817V62.215c0-23.057 18.759-41.817 41.817-41.817 23.057 0 41.817 18.759 41.817 41.817v387.57z"/><path fill="#fff" d="M132.59 52.016c-5.633 0-10.199 4.566-10.199 10.199v20.004c0 5.633 4.566 10.199 10.199 10.199s10.199-4.566 10.199-10.199V62.215c0-5.633-4.566-10.199-10.199-10.199zM132.59 109.922c-5.633 0-10.199 4.566-10.199 10.199v240.252c0 5.633 4.566 10.199 10.199 10.199s10.199-4.566 10.199-10.199V120.121c0-5.633-4.566-10.199-10.199-10.199z"/></svg>