<svg xmlns="http://www.w3.org/2000/svg" viewBox="0 0 512 512"><path fill="#fff" d="M435.078 209.327L140.047 9.81c-17.57-11.883-39.249-13.04-57.984-3.092-18.737 9.948-29.922 28.551-29.922 49.764v399.034c0 21.213 11.186 39.816 29.922 49.764 8.457 4.492 17.514 6.72 26.522 6.72 10.948 0 21.824-3.292 31.463-9.81l295.03-199.516c15.517-10.494 24.781-27.941 24.781-46.673s-9.264-36.18-24.781-46.674zm-11.424 76.453l-295.03 199.517c-11.212 7.582-25.043 8.322-36.997 1.973-11.956-6.347-19.092-18.218-19.092-31.753V56.484c0-13.535 7.137-25.405 19.092-31.753 5.396-2.865 11.175-4.287 16.923-4.287 6.985 0 13.924 2.099 20.075 6.259l295.03 199.517c10.049 6.795 15.811 17.65 15.811 29.78 0 12.13-5.764 22.985-15.812 29.78z"/><path fill="#fff" d="M363.689 201.673l-16.555-11.219c-4.663-3.158-11.001-1.942-14.162 2.72-3.16 4.662-1.94 11.002 2.721 14.161l16.555 11.22a10.15 10.15 0 0 0 5.712 1.757c3.268 0 6.478-1.568 8.45-4.477 3.16-4.663 1.94-11.003-2.721-14.162zM315.764 169.195L116.927 34.445c-4.663-3.158-11.001-1.941-14.162 2.721-3.16 4.662-1.94 11.001 2.721 14.161l198.837 134.75a10.15 10.15 0 0 0 5.712 1.757c3.268 0 6.478-1.568 8.45-4.477 3.16-4.663 1.94-11.002-2.721-14.162z"/></svg>